<svg xmlns="http://www.w3.org/2000/svg" xmlns:xlink="http://www.w3.org/1999/xlink" width="55" height="42" viewBox="0 0 55 42">
  <defs>
    <clipPath id="clip-path">
      <rect width="55" height="42" fill="none"/>
    </clipPath>
  </defs>
  <g id="Repeat_Grid_6" data-name="Repeat Grid 6" clip-path="url(#clip-path)">
    <g transform="translate(-788 -556)">
      <circle id="Ellipse_9" data-name="Ellipse 9" cx="1.5" cy="1.5" r="1.5" transform="translate(788 556)" fill="#4a4f67"/>
    </g>
    <g transform="translate(-775 -556)">
      <circle id="Ellipse_9-2" data-name="Ellipse 9" cx="1.5" cy="1.5" r="1.5" transform="translate(788 556)" fill="#4a4f67"/>
    </g>
    <g transform="translate(-762 -556)">
      <circle id="Ellipse_9-3" data-name="Ellipse 9" cx="1.5" cy="1.5" r="1.5" transform="translate(788 556)" fill="#4a4f67"/>
    </g>
    <g transform="translate(-749 -556)">
      <circle id="Ellipse_9-4" data-name="Ellipse 9" cx="1.5" cy="1.5" r="1.5" transform="translate(788 556)" fill="#4a4f67"/>
    </g>
    <g transform="translate(-736 -556)">
      <circle id="Ellipse_9-5" data-name="Ellipse 9" cx="1.5" cy="1.5" r="1.5" transform="translate(788 556)" fill="#4a4f67"/>
    </g>
    <g transform="translate(-788 -543)">
      <circle id="Ellipse_9-6" data-name="Ellipse 9" cx="1.5" cy="1.5" r="1.5" transform="translate(788 556)" fill="#4a4f67"/>
    </g>
    <g transform="translate(-775 -543)">
      <circle id="Ellipse_9-7" data-name="Ellipse 9" cx="1.5" cy="1.5" r="1.5" transform="translate(788 556)" fill="#4a4f67"/>
    </g>
    <g transform="translate(-762 -543)">
      <circle id="Ellipse_9-8" data-name="Ellipse 9" cx="1.5" cy="1.5" r="1.5" transform="translate(788 556)" fill="#4a4f67"/>
    </g>
    <g transform="translate(-749 -543)">
      <circle id="Ellipse_9-9" data-name="Ellipse 9" cx="1.5" cy="1.5" r="1.5" transform="translate(788 556)" fill="#4a4f67"/>
    </g>
    <g transform="translate(-736 -543)">
      <circle id="Ellipse_9-10" data-name="Ellipse 9" cx="1.5" cy="1.5" r="1.5" transform="translate(788 556)" fill="#4a4f67"/>
    </g>
    <g transform="translate(-788 -530)">
      <circle id="Ellipse_9-11" data-name="Ellipse 9" cx="1.5" cy="1.5" r="1.5" transform="translate(788 556)" fill="#4a4f67"/>
    </g>
    <g transform="translate(-775 -530)">
      <circle id="Ellipse_9-12" data-name="Ellipse 9" cx="1.5" cy="1.5" r="1.5" transform="translate(788 556)" fill="#4a4f67"/>
    </g>
    <g transform="translate(-762 -530)">
      <circle id="Ellipse_9-13" data-name="Ellipse 9" cx="1.5" cy="1.5" r="1.5" transform="translate(788 556)" fill="#4a4f67"/>
    </g>
    <g transform="translate(-749 -530)">
      <circle id="Ellipse_9-14" data-name="Ellipse 9" cx="1.5" cy="1.5" r="1.5" transform="translate(788 556)" fill="#4a4f67"/>
    </g>
    <g transform="translate(-736 -530)">
      <circle id="Ellipse_9-15" data-name="Ellipse 9" cx="1.5" cy="1.5" r="1.5" transform="translate(788 556)" fill="#4a4f67"/>
    </g>
    <g transform="translate(-788 -517)">
      <circle id="Ellipse_9-16" data-name="Ellipse 9" cx="1.5" cy="1.5" r="1.5" transform="translate(788 556)" fill="#4a4f67"/>
    </g>
    <g transform="translate(-775 -517)">
      <circle id="Ellipse_9-17" data-name="Ellipse 9" cx="1.5" cy="1.5" r="1.5" transform="translate(788 556)" fill="#4a4f67"/>
    </g>
    <g transform="translate(-762 -517)">
      <circle id="Ellipse_9-18" data-name="Ellipse 9" cx="1.5" cy="1.5" r="1.5" transform="translate(788 556)" fill="#4a4f67"/>
    </g>
    <g transform="translate(-749 -517)">
      <circle id="Ellipse_9-19" data-name="Ellipse 9" cx="1.5" cy="1.5" r="1.5" transform="translate(788 556)" fill="#4a4f67"/>
    </g>
    <g transform="translate(-736 -517)">
      <circle id="Ellipse_9-20" data-name="Ellipse 9" cx="1.5" cy="1.5" r="1.5" transform="translate(788 556)" fill="#4a4f67"/>
    </g>
  </g>
</svg>
