<?xml version="1.0" encoding="utf-8"?>
<!-- Generator: Adobe Illustrator 24.2.0, SVG Export Plug-In . SVG Version: 6.00 Build 0)  -->
<svg version="1.1" id="Layer_1" xmlns="http://www.w3.org/2000/svg" xmlns:xlink="http://www.w3.org/1999/xlink" x="0px" y="0px"
	 viewBox="0 0 904 942.8" style="enable-background:new 0 0 904 942.8;" xml:space="preserve">
<style type="text/css">
	.st0{stroke:#000000;stroke-width:9.6887;stroke-miterlimit:10;}
	.st1{fill:#FFFFFF;stroke:#000000;stroke-width:9.5933;stroke-miterlimit:10;}
	.st2{fill:#FFFFFF;stroke:#000000;stroke-width:9.6887;stroke-miterlimit:10;}
	.st3{fill:none;stroke:#000000;stroke-width:1.0669;stroke-miterlimit:10;}
	.st4{opacity:0.76;fill:url(#SVGID_1_);}
	.st5{fill:none;stroke:#000000;stroke-width:2.4222;stroke-linecap:round;stroke-linejoin:round;stroke-miterlimit:10;}
	.st6{opacity:0.8;fill:url(#SVGID_2_);}
	.st7{stroke:#000000;stroke-width:2.4222;stroke-miterlimit:10;}
	.st8{fill:none;stroke:#000000;stroke-width:1.8166;stroke-miterlimit:10;}
	.st9{fill:none;stroke:#000000;stroke-width:1.2111;stroke-miterlimit:10;}
	.st10{opacity:0.8;}
	.st11{opacity:0.8;fill:#FFFFFF;}
	.st12{fill:#FFFFFF;}
	.st13{opacity:0.3;}
	.st14{opacity:0.15;fill:#4CEAF3;}
	.st15{opacity:0.12;fill:#4CEAF3;}
	.st16{opacity:0.8;fill:url(#SVGID_3_);}
	.st17{fill:#1F2B3D;}
	.st18{opacity:0.4;fill:#4E0B6D;}
	.st19{opacity:0.55;fill:url(#SVGID_4_);}
	.st20{opacity:0.55;fill:url(#SVGID_5_);}
	.st21{fill:#4CEAF3;}
	.st22{fill:none;stroke:#000000;stroke-width:10;stroke-miterlimit:10;}
	.st23{fill:#101923;}
	.st24{fill:none;stroke:#000000;stroke-width:6;stroke-miterlimit:10;}
	.st25{fill:none;stroke:#000000;stroke-width:2;stroke-linecap:round;stroke-linejoin:round;stroke-miterlimit:10;}
	.st26{fill:#C48349;}
	.st27{opacity:0.9;fill:url(#SVGID_6_);}
	.st28{opacity:0.45;fill:url(#SVGID_7_);}
	.st29{fill:none;stroke:#000000;stroke-width:8;stroke-miterlimit:10;}
	.st30{fill:#7D3F31;}
	.st31{fill:none;stroke:#000000;stroke-width:7.9212;stroke-miterlimit:10;}
	.st32{opacity:0.35;fill:url(#SVGID_8_);}
	.st33{opacity:0.8;fill:url(#SVGID_9_);}
	.st34{opacity:0.55;fill:#4E0B6D;}
	.st35{opacity:0.45;fill:url(#SVGID_10_);}
	.st36{fill:#894A1A;}
	.st37{fill:none;stroke:#000000;stroke-width:0.8683;stroke-miterlimit:10;}
	.st38{opacity:0.8;fill:url(#SVGID_11_);}
	.st39{stroke:#000000;stroke-width:2;stroke-miterlimit:10;}
	.st40{opacity:0.45;fill:url(#SVGID_12_);}
	.st41{fill:none;stroke:#000000;stroke-miterlimit:10;}
	.st42{fill:none;stroke:#000000;stroke-width:1.5;stroke-miterlimit:10;}
	.st43{opacity:0.7;}
	.st44{fill:none;stroke:#000000;stroke-width:5;stroke-miterlimit:10;}
	.st45{fill:none;stroke:#000000;stroke-width:3.5;stroke-miterlimit:10;}
	.st46{fill:none;stroke:#000000;stroke-width:5;stroke-linecap:round;stroke-linejoin:round;stroke-miterlimit:10;}
	.st47{fill:none;stroke:#000000;stroke-width:3;stroke-linecap:round;stroke-linejoin:round;stroke-miterlimit:10;}
	.st48{opacity:0.25;fill:#FFFFFF;stroke:#000000;stroke-miterlimit:10;}
	.st49{fill:#FFFFFF;stroke:#000000;stroke-width:10;stroke-miterlimit:10;}
	.st50{fill:#FFFFFF;stroke:#000000;stroke-width:6;stroke-miterlimit:10;}
	.st51{fill:#FFFFFF;stroke:#000000;stroke-width:8;stroke-miterlimit:10;}
	.st52{opacity:0.65;fill:url(#SVGID_13_);}
	.st53{fill:#FFFFFF;stroke:#000000;stroke-width:7.9212;stroke-miterlimit:10;}
	.st54{opacity:0.76;fill:url(#SVGID_14_);}
	.st55{opacity:0.8;fill:url(#SVGID_15_);}
	.st56{fill:#FFFFFF;stroke:#000000;stroke-width:5;stroke-miterlimit:10;}
	.st57{fill:#FFFFFF;stroke:#000000;stroke-width:3.5;stroke-miterlimit:10;}
	.st58{fill:#FFFFFF;stroke:#000000;stroke-width:4.6256;stroke-miterlimit:10;}
	.st59{fill:#FFFFFF;stroke:#000000;stroke-width:2.7754;stroke-miterlimit:10;}
	.st60{fill:none;stroke:#000000;stroke-width:1.5;stroke-linecap:round;stroke-linejoin:round;stroke-miterlimit:10;}
	.st61{fill:none;stroke:#000000;stroke-linecap:round;stroke-linejoin:round;stroke-miterlimit:10;}
	.st62{clip-path:url(#SVGID_17_);}
	.st63{opacity:0.15;}
	.st64{fill:none;stroke:#4CEAF3;stroke-width:5;stroke-miterlimit:10;}
	.st65{fill:none;stroke:#4CEAF3;stroke-miterlimit:10;}
	.st66{fill:none;stroke:#4CEAF3;stroke-width:2;stroke-miterlimit:10;}
	.st67{opacity:0.65;fill:url(#SVGID_18_);}
	.st68{opacity:0.76;fill:url(#SVGID_19_);}
	.st69{opacity:0.8;fill:url(#SVGID_20_);}
	.st70{fill:none;stroke:#000000;stroke-width:2;stroke-miterlimit:10;}
	.st71{opacity:0.65;fill:url(#SVGID_21_);}
	.st72{opacity:0.76;fill:url(#SVGID_22_);}
	.st73{opacity:0.8;fill:url(#SVGID_23_);}
	.st74{opacity:0.3;fill:none;stroke:#FFFFFF;stroke-width:9;stroke-linecap:round;stroke-linejoin:round;stroke-miterlimit:10;}
	.st75{fill:none;stroke:#000000;stroke-width:4;stroke-linecap:round;stroke-linejoin:round;stroke-miterlimit:10;}
	.st76{opacity:0.3;fill:url(#SVGID_24_);}
	.st77{opacity:0.2;fill:url(#SVGID_25_);}
</style>
<circle class="st14" cx="447.7" cy="399" r="342.2"/>
<circle class="st15" cx="447.7" cy="399" r="243.6"/>
<radialGradient id="SVGID_1_" cx="447.6542" cy="399.0188" r="222.9384" gradientUnits="userSpaceOnUse">
	<stop  offset="0" style="stop-color:#4CEAF3"/>
	<stop  offset="1" style="stop-color:#4CEAF3;stop-opacity:0"/>
</radialGradient>
<circle style="opacity:0.8;fill:url(#SVGID_1_);" cx="447.7" cy="399" r="222.9"/>
<path class="st17" d="M875.4,652l-12.9-8.5C777,587.2,684.7,542,587.8,508.7l0,0H463.1H452H316.2l0,0
	C219.4,542,127,587.2,41.5,643.5L28.6,652l-33,312.8H452h11.1h445.3L875.4,652z"/>
<path class="st18" d="M436.3,508.7h-120l0,0C219.4,542,127,587.2,41.5,643.5L28.6,652l-33,312.8h440.6V508.7z"/>
<linearGradient id="SVGID_2_" gradientUnits="userSpaceOnUse" x1="321.0392" y1="594.3795" x2="239.9444" y2="442.8006">
	<stop  offset="0" style="stop-color:#4CEAF3;stop-opacity:0"/>
	<stop  offset="1" style="stop-color:#4CEAF3"/>
</linearGradient>
<path style="opacity:0.55;fill:url(#SVGID_2_);" d="M875.4,652l-12.9-8.5C777,587.2,684.7,542,587.8,508.7l0,0H463.1H452H316.2l0,0
	C219.4,542,127,587.2,41.5,643.5L28.6,652l-33,312.8H452h11.1h445.3L875.4,652z"/>
<linearGradient id="SVGID_3_" gradientUnits="userSpaceOnUse" x1="564.2548" y1="603.6522" x2="630.1917" y2="462.6837">
	<stop  offset="0" style="stop-color:#4CEAF3;stop-opacity:0"/>
	<stop  offset="1" style="stop-color:#4CEAF3"/>
</linearGradient>
<path style="opacity:0.55;fill:url(#SVGID_3_);" d="M875.4,652l-12.9-8.5C777,587.2,684.7,542,587.8,508.7l0,0H463.1H452H316.2l0,0
	C219.4,542,127,587.2,41.5,643.5L28.6,652l-33,312.8H452h11.1h445.3L875.4,652z"/>
<path class="st21" d="M38,657.9l12.9-8.5c85.6-56.3,180.3-96.8,277.2-130.1l0.1,3.9h135.8H475l125.1,5.7l3.4,0.8
	c96.9,33.2,185.4,72,270.9,128.3l1.7,1.1l-0.8-7.2l-12.9-8.5C777,587.2,684.7,542,587.8,508.7h0H463.1H452H316.2l0,0
	C219.4,542,127,587.2,41.5,643.5L28.6,652l-33,312.8h1.8L38,657.9z"/>
<path class="st22" d="M875.4,652l-12.9-8.5C777,587.2,684.7,542,587.8,508.7l0,0H463.1H452H316.2l0,0
	C219.4,542,127,587.2,41.5,643.5L28.6,652l-33,312.8H452h11.1h445.3L875.4,652z"/>
<g>
	<g>
		<path d="M31,650.4c1.1,0.4,1.9,0.7,2.9,1.1c0.9,0.4,1.8,0.7,2.7,1.1c1.8,0.8,3.5,1.6,5.2,2.5c3.4,1.7,6.7,3.7,9.9,5.7
			c6.4,4.1,12.4,8.7,18.1,13.7c11.4,10,21.3,21.5,29.8,34c8.5,12.4,15.6,25.8,21.4,39.6c5.9,13.8,10.4,28.1,14,42.6
			c7.1,29,10.5,58.8,11,88.5c0.3,14.9-0.5,29.7-0.9,44.5c-0.2,7.4-0.5,14.8-0.7,22.2c-0.3,7.4-0.5,14.8-0.9,22.2
			c-0.1-7.4-0.2-14.8-0.3-22.2c-0.1-7.4-0.2-14.8-0.2-22.2l-0.1-22.2c0-3.7-0.1-7.4-0.2-11.1c-0.1-3.7-0.3-7.4-0.5-11.1
			c-0.2-3.7-0.4-7.4-0.7-11c-0.3-3.7-0.5-7.4-0.9-11c-0.6-7.3-1.5-14.7-2.5-22c-1.1-7.3-2.2-14.6-3.7-21.8c-1.5-7.2-3.1-14.4-5-21.5
			c-3.8-14.2-8.5-28.1-14.4-41.5c-5.9-13.4-12.9-26.3-21.2-38.2c-4.2-6-8.6-11.7-13.5-17.1c-4.8-5.4-9.9-10.6-15.4-15.4
			c-5.4-4.8-11.2-9.2-17.3-13c-3-1.9-6.2-3.7-9.3-5.4c-1.6-0.8-3.2-1.6-4.8-2.3c-0.8-0.4-1.6-0.7-2.4-1c-0.8-0.3-1.7-0.7-2.3-0.9
			l-0.1,0c-1.8-0.6-2.8-2.6-2.2-4.4S29.2,649.7,31,650.4z"/>
	</g>
	<g>
		<path d="M141.9,861.4c-2-8.8-4.2-17.5-6.7-26.1c-2.5-8.6-5.2-17.1-8.3-25.4c-3-8.4-6.6-16.5-10.4-24.5c-1-2-2-4-3-6
			c-1-2-2.2-3.9-3.2-5.9l-1.6-3l-1.8-2.9c-1.2-1.9-2.3-3.8-3.5-5.8c1.6,1.6,3.1,3.3,4.6,5c0.8,0.8,1.5,1.7,2.2,2.6l2.1,2.7
			c1.3,1.8,2.7,3.7,4,5.5c1.2,1.9,2.4,3.9,3.6,5.8c4.6,7.8,8.6,16.1,11.7,24.7c3.1,8.5,5.7,17.3,7.4,26.2c0.4,2.2,0.9,4.5,1.2,6.7
			c0.3,2.3,0.7,4.5,0.9,6.7C141.6,852.3,142,856.9,141.9,861.4z"/>
	</g>
</g>
<g>
	<g>
		<path d="M877.9,655.5c-0.7,0.2-1.6,0.6-2.3,0.9c-0.8,0.3-1.6,0.7-2.4,1c-1.6,0.7-3.2,1.5-4.8,2.3c-3.2,1.7-6.3,3.5-9.3,5.4
			c-6.1,3.9-11.9,8.3-17.3,13c-5.5,4.8-10.6,9.9-15.4,15.4c-4.8,5.4-9.3,11.2-13.5,17.1c-8.3,11.9-15.4,24.8-21.2,38.2
			c-5.9,13.4-10.6,27.3-14.4,41.5c-1.9,7.1-3.5,14.3-5,21.5c-1.4,7.2-2.6,14.5-3.7,21.8c-1,7.3-1.9,14.6-2.5,22
			c-0.4,3.7-0.6,7.3-0.9,11c-0.2,3.7-0.4,7.4-0.7,11c-0.1,3.7-0.4,7.4-0.4,11.1c-0.1,3.7-0.3,7.4-0.2,11.1l-0.1,22.2
			c0,7.4-0.1,14.8-0.2,22.2c-0.1,7.4-0.2,14.8-0.3,22.2c-0.3-7.4-0.6-14.8-0.9-22.2c-0.3-7.4-0.5-14.8-0.7-22.2
			c-0.4-14.8-1.1-29.6-0.9-44.5c0.5-29.7,3.9-59.5,11-88.5c3.6-14.5,8.1-28.8,14-42.6c5.9-13.8,12.9-27.1,21.4-39.6
			c8.5-12.4,18.4-24,29.8-34c5.7-5,11.7-9.6,18.1-13.7c3.2-2,6.5-4,9.9-5.7c1.7-0.9,3.4-1.7,5.2-2.5c0.9-0.4,1.8-0.8,2.7-1.1
			c0.9-0.4,1.8-0.7,2.9-1.1c1.8-0.6,3.8,0.4,4.4,2.2C880.8,652.9,879.8,654.9,877.9,655.5L877.9,655.5z"/>
	</g>
	<g>
		<path d="M764.9,859.9c-0.1-4.5,0.3-9.1,0.8-13.6c0.2-2.3,0.6-4.5,0.9-6.7c0.3-2.2,0.8-4.5,1.2-6.7c1.8-8.9,4.3-17.7,7.4-26.2
			c3.1-8.6,7.1-16.8,11.7-24.7c1.2-1.9,2.4-3.9,3.6-5.8c1.3-1.9,2.7-3.7,4-5.5l2.1-2.7c0.7-0.9,1.5-1.7,2.2-2.6c1.5-1.7,3-3.4,4.6-5
			c-1.1,2-2.3,3.9-3.5,5.8l-1.8,2.9l-1.6,3c-1.1,2-2.2,3.9-3.2,5.9c-1,2-2,4-3,6c-3.8,8-7.4,16.2-10.4,24.5
			c-3.1,8.3-5.8,16.8-8.3,25.4C769.1,842.4,766.9,851.1,764.9,859.9z"/>
	</g>
</g>
<path class="st23" d="M452.7,656.3c80.8,0,147.1-61.9,154-140.9c-6.3-2.3-12.6-4.5-18.9-6.7l0,0H463.1H452H316.2l0,0
	c-5.9,2-11.7,4.1-17.6,6.2C305.4,594.1,371.8,656.3,452.7,656.3z"/>
<path class="st21" d="M302.8,529.1c5.8-2.1,11.7-4.2,17.6-6.2l0,0h135.8h11.1l121.2,1.9l1.1,0.6c4.4,1.5,11.8,3.5,16.2,5.1
	c0.7-4,0.6-11,0.9-15.1c-6.3-2.3-12.6-4.5-18.9-6.7h0H463.1H452H316.2l0,0c-5.9,2-11.7,4.1-17.6,6.2c1.1,13,3.8,25.5,7.9,37.4
	C304.8,544.8,303.5,537.1,302.8,529.1z"/>
<path class="st24" d="M452.7,656.3c80.8,0,147.1-61.9,154-140.9c-6.3-2.3-12.6-4.5-18.9-6.7l0,0H463.1H452H316.2l0,0
	c-5.9,2-11.7,4.1-17.6,6.2C305.4,594.1,371.8,656.3,452.7,656.3z"/>
<path class="st25" d="M321.5,538.8c-82.2,31.8-167.2,66.5-242.8,111.8l-24.1,15.9L15.5,964.8"/>
<path class="st26" d="M454.5,634.8h-2.7c-73.6,0-133.3-59.7-133.3-133.3V359.7h269.3v141.8C587.8,575.2,528.1,634.8,454.5,634.8z"/>
<linearGradient id="SVGID_4_" gradientUnits="userSpaceOnUse" x1="542.944" y1="500.5011" x2="297.8914" y2="477.259">
	<stop  offset="0" style="stop-color:#4E0B6D;stop-opacity:0"/>
	<stop  offset="1" style="stop-color:#4E0B6D"/>
</linearGradient>
<path style="opacity:0.9;fill:url(#SVGID_4_);" d="M512.2,447.6c0,0,5.5,57.9-55.5,70.4c-5.5,1.1-8.6,0-10.4-2.4v-18.7
	c3.7-4.7,11.5-7.5,11.5-7.5h-11.5V359.7H318.5v141.8c0,71.8,56.8,130.3,127.9,133.2v-36.3h7.2c7.2,0,14.2-2.6,19.7-7.3
	c20.8-17.8,72.5-64.8,89-105.3c13.1-38.1,11.1-102.7,9.8-126.1h-16.3L512.2,447.6z"/>
<linearGradient id="SVGID_5_" gradientUnits="userSpaceOnUse" x1="340.9213" y1="497.9216" x2="329.9318" y2="498.111">
	<stop  offset="0" style="stop-color:#4CEAF3;stop-opacity:0"/>
	<stop  offset="1" style="stop-color:#4CEAF3"/>
</linearGradient>
<path style="opacity:0.45;fill:url(#SVGID_5_);" d="M512.2,447.6c0,0,5.5,57.9-55.5,70.4c-5.5,1.1-8.6,0-10.4-2.4v-18.7
	c3.7-4.7,11.5-7.5,11.5-7.5h-11.5V359.7H318.5v141.8c0,71.8,56.8,130.3,127.9,133.2v-36.3h7.2c7.2,0,14.2-2.6,19.7-7.3
	c20.8-17.8,72.5-64.8,89-105.3c13.1-38.1,11.1-102.7,9.8-126.1h-16.3L512.2,447.6z"/>
<path class="st21" d="M328.7,501.5V359.7h-10.2v141.8c0,73.6,59.7,133.3,133.3,133.3h2.7c1.3,0,2.5,0,3.7-0.1
	C386.3,632.8,328.7,573.9,328.7,501.5z"/>
<path class="st21" d="M580.5,359.7v141.8c0,72.8-58.4,132-131,133.3c0.8,0,1.6,0,2.3,0h2.7c73.6,0,133.3-59.7,133.3-133.3V359.7
	H580.5z"/>
<path class="st29" d="M454.5,634.8h-2.7c-73.6,0-133.3-59.7-133.3-133.3V359.7h269.3v141.8C587.8,575.2,528.1,634.8,454.5,634.8z"/>
<ellipse transform="matrix(0.2729 -0.962 0.962 0.2729 149.3734 803.0787)" class="st30" cx="606" cy="302.7" rx="53.2" ry="25.2"/>
<path class="st21" d="M620.5,251.6c-5.5-1.6-11.6,0.9-17.5,6.2c3.2-1.4,6.4-1.7,9.4-0.8c13.4,3.8,17.7,29.8,9.7,58
	c-4.7,16.7-12.7,30.4-21.2,38.1c11.2-4.7,23.1-21.5,29.3-43.4C638.2,281.3,633.8,255.4,620.5,251.6z"/>
<ellipse transform="matrix(0.2729 -0.962 0.962 0.2729 149.3734 803.0787)" class="st31" cx="606" cy="302.7" rx="53.2" ry="25.2"/>
<g>
	<path d="M618.4,306.2c-1.4,5.1-3.3,10-5.8,14.7c-1.3,2.3-2.7,4.6-4.6,6.7c-1,1-2,2-3.4,2.7c-1.3,0.7-3.1,1.2-4.9,0.8
		c-1.8-0.4-3.3-1.6-4.3-2.9c-1-1.3-1.7-2.7-2.2-4.1c-1-2.8-1.5-5.7-1.6-8.5c-0.3-5.6,0.5-11.2,2-16.5c1.5-5.3,3.8-10.5,7-15.1
		c1.6-2.3,3.5-4.5,5.8-6.4c1.2-0.9,2.5-1.8,4.1-2.3c1.5-0.6,3.4-0.8,5.2-0.2c1.7,0.6,3,1.9,3.7,3.3c0.8,1.3,1.2,2.7,1.5,4.1
		c0.6,2.7,0.6,5.4,0.4,8.1C620.9,296,619.8,301.2,618.4,306.2z M618.4,306.2c1.4-5.1,2.2-10.3,1.8-15.6c-0.2-2.6-0.6-5.2-1.5-7.5
		c-0.4-1.2-1-2.2-1.8-3.1c-0.7-0.9-1.6-1.4-2.4-1.5c-1.6-0.2-3.5,1.1-5,2.7c-1.5,1.7-2.8,3.8-4,5.9c-2.3,4.3-4,9-5.4,13.8
		c-1.4,4.8-2.4,9.7-2.7,14.6c-0.1,2.4-0.1,4.9,0.3,7.1c0.4,2.2,1.3,4.3,2.8,4.9c0.7,0.3,1.7,0.4,2.8,0c1.1-0.3,2.1-1,3.1-1.7
		c2-1.5,3.7-3.5,5.2-5.6C614.8,316.2,616.9,311.3,618.4,306.2z"/>
</g>
<g>
	<path d="M610.8,307.1c-0.8,2.9-1.8,5.7-3.2,8.4c-0.7,1.3-1.5,2.7-2.6,3.9c-0.6,0.6-1.1,1.2-2,1.6c-0.8,0.4-1.8,0.7-2.9,0.5
		c-1.1-0.2-2-0.9-2.6-1.7l-0.4-0.6c-0.1-0.2-0.2-0.4-0.4-0.6c-0.3-0.4-0.4-0.8-0.6-1.2c-0.6-1.6-0.9-3.3-1-4.9
		c-0.2-3.3,0.2-6.5,1.1-9.5c0.9-3.1,2.2-6,4.1-8.7c1-1.3,2.1-2.6,3.5-3.7c0.4-0.3,0.7-0.5,1.1-0.7c0.2-0.1,0.4-0.2,0.6-0.3l0.7-0.3
		c0.9-0.3,2.1-0.4,3.1-0.1c1.1,0.4,1.8,1.2,2.2,2c0.5,0.8,0.6,1.6,0.8,2.4c0.3,1.6,0.3,3.1,0.2,4.7
		C612.2,301.3,611.6,304.2,610.8,307.1z M610.8,307.1c0.8-2.9,1.2-5.9,1-8.9c-0.1-1.5-0.4-2.9-0.9-4.2c-0.3-0.6-0.6-1.3-1-1.7
		c-0.4-0.4-0.9-0.7-1.3-0.7c-0.4,0-0.8,0.1-1.2,0.4c-0.4,0.3-0.9,0.7-1.3,1.2c-0.8,0.9-1.5,2.1-2.1,3.3c-1.2,2.4-2.2,5.1-3,7.8
		c-0.8,2.7-1.3,5.4-1.6,8.2c-0.1,1.4-0.2,2.7,0.1,4c0.1,0.6,0.2,1.2,0.5,1.7c0.2,0.5,0.5,0.8,0.8,1c0.4,0.2,0.9,0.2,1.4,0
		c0.6-0.1,1.2-0.5,1.7-0.9c1.1-0.8,2.1-1.9,3-3.1C608.7,312.7,609.9,309.9,610.8,307.1z"/>
</g>
<ellipse transform="matrix(0.962 -0.2729 0.2729 0.962 -71.1729 93.7362)" class="st30" cx="301.4" cy="302.7" rx="25.2" ry="53.2"/>
<path class="st21" d="M283.2,315.3c-8-28.3-3.7-54.2,9.7-58c4.7-1.3,10,0.3,15.1,4.2c-7-7.9-14.6-11.8-21.2-9.9
	c-13.4,3.8-17.7,29.8-9.7,58c5.2,18.2,14.2,32.9,23.6,40.1C293.7,341.6,287.3,329.5,283.2,315.3z"/>
<ellipse transform="matrix(0.962 -0.2729 0.2729 0.962 -71.1729 93.7362)" class="st31" cx="301.4" cy="302.7" rx="25.2" ry="53.2"/>
<g>
	<path d="M289,306.2c1.5,5,3.6,9.9,6.6,14.2c1.5,2.1,3.2,4.1,5.2,5.6c1,0.7,2.1,1.4,3.1,1.7c1.1,0.4,2.1,0.3,2.8,0
		c1.5-0.7,2.4-2.7,2.8-4.9c0.4-2.2,0.4-4.7,0.3-7.1c-0.3-4.9-1.3-9.8-2.7-14.6c-1.4-4.8-3.1-9.5-5.4-13.8c-1.2-2.1-2.5-4.2-4-5.9
		c-1.5-1.7-3.4-3-5-2.7c-0.8,0.1-1.7,0.6-2.4,1.5c-0.7,0.8-1.3,1.9-1.8,3.1c-0.9,2.3-1.3,4.9-1.5,7.5
		C286.8,295.9,287.5,301.2,289,306.2z M289,306.2c-1.4-5.1-2.5-10.2-2.8-15.6c-0.1-2.7-0.1-5.4,0.4-8.1c0.3-1.4,0.7-2.8,1.5-4.1
		c0.7-1.3,2-2.6,3.7-3.3c1.7-0.6,3.7-0.4,5.2,0.2c1.6,0.6,2.9,1.4,4.1,2.3c2.4,1.9,4.2,4.1,5.8,6.4c3.2,4.6,5.5,9.8,7,15.1
		c1.5,5.3,2.3,10.9,2,16.5c-0.2,2.8-0.6,5.7-1.6,8.5c-0.5,1.4-1.2,2.8-2.2,4.1c-1,1.3-2.5,2.5-4.3,2.9c-1.8,0.4-3.6-0.1-4.9-0.8
		c-1.4-0.7-2.4-1.7-3.4-2.7c-1.9-2-3.3-4.3-4.6-6.7C292.2,316.3,290.4,311.3,289,306.2z"/>
</g>
<g>
	<path d="M296.6,307.1c0.8,2.9,2.1,5.7,3.8,8.1c0.9,1.2,1.9,2.3,3,3.1c0.6,0.4,1.2,0.7,1.7,0.9c0.6,0.2,1.1,0.1,1.4,0
		c0.3-0.2,0.6-0.5,0.8-1c0.2-0.5,0.4-1.1,0.5-1.7c0.2-1.2,0.2-2.6,0.1-4c-0.2-2.7-0.8-5.5-1.6-8.2c-0.8-2.7-1.7-5.3-3-7.8
		c-0.6-1.2-1.3-2.4-2.1-3.3c-0.4-0.4-0.8-0.9-1.3-1.2c-0.4-0.3-0.8-0.4-1.2-0.4c-0.4,0-0.8,0.3-1.3,0.7c-0.4,0.4-0.7,1-1,1.7
		c-0.5,1.3-0.8,2.8-0.9,4.2C295.4,301.2,295.8,304.2,296.6,307.1z M296.6,307.1c-0.8-2.9-1.4-5.8-1.7-8.9c-0.1-1.5-0.1-3.1,0.2-4.7
		c0.2-0.8,0.4-1.6,0.8-2.4c0.4-0.8,1.2-1.6,2.2-2c1.1-0.4,2.2-0.2,3.1,0.1l0.7,0.3c0.2,0.1,0.4,0.2,0.6,0.3c0.4,0.2,0.8,0.5,1.1,0.7
		c1.4,1.1,2.5,2.3,3.5,3.7c1.9,2.7,3.2,5.6,4.1,8.7c0.8,3.1,1.3,6.3,1.1,9.5c-0.1,1.6-0.4,3.3-1,4.9c-0.2,0.4-0.3,0.8-0.6,1.2
		c-0.1,0.2-0.2,0.4-0.4,0.6l-0.4,0.6c-0.6,0.8-1.5,1.5-2.6,1.7c-1.1,0.2-2.1-0.1-2.9-0.5c-0.8-0.4-1.4-1-2-1.6
		c-1.1-1.2-1.9-2.5-2.6-3.9C298.4,312.8,297.4,310,296.6,307.1z"/>
</g>
<path class="st26" d="M609.1,187.2C611.9,20.7,453.2,29.3,453.2,29.3l0,1.2l0-1.2c0,0-158.7-8.6-155.9,157.8
	c0.2,13.7,1.7,27.4,4.1,40.8c8.3,45.4,11.5,81.5,11.3,104.5c-0.2,28.2-5,212.9,126.8,213.7l0,0l0,0c0.3,0,0.6,0,0.9,0l12.7-0.2
	l12.7,0.2c0.3,0,0.6,0,0.9,0l0,0l0,0c131.8-0.8,127.1-185.5,126.8-213.7c-0.2-23,3.1-59.1,11.3-104.5
	C607.4,214.5,608.8,200.9,609.1,187.2z"/>
<linearGradient id="SVGID_6_" gradientUnits="userSpaceOnUse" x1="450.3908" y1="-39.4994" x2="452.6645" y2="143.9112">
	<stop  offset="1.082549e-07" style="stop-color:#D91C5C"/>
	<stop  offset="1" style="stop-color:#D91C5C;stop-opacity:0"/>
</linearGradient>
<path style="opacity:0.35;fill:url(#SVGID_6_);" d="M609.1,187.2C611.9,20.7,453.2,29.3,453.2,29.3l0,1.2l0-1.2
	c0,0-158.7-8.6-155.9,157.8c0.2,13.7,1.7,27.4,4.1,40.8c8.3,45.4,11.5,81.5,11.3,104.5c-0.2,28.2-5,212.9,126.8,213.7l0,0l0,0
	c0.3,0,0.6,0,0.9,0l12.7-0.2l12.7,0.2c0.3,0,0.6,0,0.9,0l0,0l0,0c131.8-0.8,127.1-185.5,126.8-213.7c-0.2-23,3.1-59.1,11.3-104.5
	C607.4,214.5,608.8,200.9,609.1,187.2z"/>
<linearGradient id="SVGID_7_" gradientUnits="userSpaceOnUse" x1="453.2761" y1="382.4954" x2="453.2761" y2="364.6832">
	<stop  offset="0" style="stop-color:#4E0B6D;stop-opacity:0"/>
	<stop  offset="1" style="stop-color:#4E0B6D"/>
</linearGradient>
<path style="opacity:0.8;fill:url(#SVGID_7_);" d="M428.8,376.5c0,0-15.4-15.3-1.2-16.1c12.6,4.3,18.4,6.2,27,6.2
	c8.6,0,25.2-6.2,25.2-6.2s9.2-0.2,2.8,10.8c-3.5,4.5-7.8,7.2-7.8,7.2s-7.3,6.8-21.8,6.8S428.8,376.5,428.8,376.5z"/>
<path class="st34" d="M512.7,524.6c-69.6,16-62.1-70.3-62.1-70.3c-71.7,2.1-60-33.7-62.8-67.1c-2.4-28.7-1.7-19.8-24.8-68.9
	c-9.3-19.8-14.3-41.3-14.8-63.2C345.4,125.1,375,50.7,375,50.7l-1.1-4.7c-39.2,18.7-78,58.2-76.6,141.2c0.2,13.7,1.7,27.4,4.1,40.8
	c8.3,45.4,11.5,81.5,11.3,104.5c-0.2,28.2-5,212.9,126.8,213.7c0.3,0,0.6,0,0.9,0l12.7-0.2l12.7,0.2c0.3,0,0.6,0,0.9,0
	c17.9-0.1,33.3-3.6,46.5-9.6L512.7,524.6z"/>
<linearGradient id="SVGID_8_" gradientUnits="userSpaceOnUse" x1="333.4253" y1="304.211" x2="323.6094" y2="305.1034">
	<stop  offset="0" style="stop-color:#4CEAF3;stop-opacity:0"/>
	<stop  offset="1" style="stop-color:#4CEAF3"/>
</linearGradient>
<path style="opacity:0.45;fill:url(#SVGID_8_);" d="M512.7,524.6c-69.6,16-62.1-70.3-62.1-70.3c-71.7,2.1-60-33.7-62.8-67.1
	c-2.4-28.7-1.7-19.8-24.8-68.9c-9.3-19.8-14.3-41.3-14.8-63.2C345.4,125.1,375,50.7,375,50.7l-1.1-4.7
	c-39.2,18.7-78,58.2-76.6,141.2c0.2,13.7,1.7,27.4,4.1,40.8c8.3,45.4,11.5,81.5,11.3,104.5c-0.2,28.2-5,212.9,126.8,213.7
	c0.3,0,0.6,0,0.9,0l12.7-0.2l12.7,0.2c0.3,0,0.6,0,0.9,0c17.9-0.1,33.3-3.6,46.5-9.6L512.7,524.6z"/>
<g>
	<path class="st21" d="M462.3,29.4C462.3,29.4,462.2,29.4,462.3,29.4l0,1.2L462.3,29.4z"/>
	<path class="st21" d="M462.2,546l-4.5,0.1l8.1,0.1c0.3,0,0.6,0,0.9,0c1.1,0,2.3,0,3.4-0.1L462.2,546z"/>
	<path class="st21" d="M457.7,29.3c-2.9,0-4.5,0.1-4.5,0.1l0,0C454.9,29.3,456.4,29.3,457.7,29.3z"/>
	<path class="st21" d="M321.8,332.4c0.2-23-3.1-59.1-11.3-104.5c-2.4-13.4-3.9-27.1-4.1-40.8C303.9,44.9,419.5,30.5,453.1,29.4l0,0
		c0,0-158.7-8.6-155.9,157.8c0.2,13.7,1.7,27.4,4.1,40.8c8.3,45.4,11.5,81.5,11.3,104.5c-0.2,28.2-5,212.9,126.8,213.7
		c0.3,0,0.6,0,0.9,0l4.8-0.1C316.9,542.2,321.6,360.4,321.8,332.4z"/>
</g>
<polygon class="st36" points="453.3,413.4 441.1,407.7 409.3,424 453.2,424 "/>
<polygon class="st36" points="453.8,413.4 466,407.7 497.8,424 453.6,424 "/>
<g>
	<path class="st21" d="M473.5,30.1c45.6,6.5,129,35,127,156c-0.2,13.7-1.7,27.4-4.1,40.8c-8.3,45.4-11.5,81.5-11.3,104.5
		c0.2,28.2,5,212.9-126.8,213.7c-0.3,0-0.6,0-0.9,0l-12.7-0.2l-12.7,0.2c-0.3,0-0.6,0-0.9,0c-3.6,0-7-0.2-10.4-0.5
		c6,0.9,12.3,1.5,19,1.5c0.3,0,0.6,0,0.9,0l12.7-0.2l12.7,0.2c0.3,0,0.6,0,0.9,0c131.8-0.8,127.1-185.5,126.8-213.7
		c-0.2-23,3.1-59.1,11.3-104.5c2.4-13.4,3.9-27.1,4.1-40.8C611.2,58,516.2,34.3,473.5,30.1z"/>
	<polygon class="st21" points="444.6,29.3 444.6,29.3 444.6,29.5 	"/>
</g>
<path class="st29" d="M609.1,187.2C611.9,20.7,453.2,29.3,453.2,29.3l0,1.2l0-1.2c0,0-158.7-8.6-155.9,157.8
	c0.2,13.7,1.7,27.4,4.1,40.8c8.3,45.4,11.5,81.5,11.3,104.5c-0.2,28.2-5,212.9,126.8,213.7l0,0l0,0c0.3,0,0.6,0,0.9,0l12.7-0.2
	l12.7,0.2c0.3,0,0.6,0,0.9,0l0,0l0,0c131.8-0.8,127.1-185.5,126.8-213.7c-0.2-23,3.1-59.1,11.3-104.5
	C607.4,214.5,608.8,200.9,609.1,187.2z"/>
<g>
	<g>
		<g>
			<g>
				<path d="M425.7,344.8c-1.4,2.6-2.6,5.6-3.4,8.5c-0.8,2.9-1,5.9-0.6,8.9c0.4,2.9,1.5,5.8,3.2,8.4c1.7,2.6,3.9,5,6.3,7.3
					c0.1,0.1,0.1,0.3,0,0.5c-0.1,0.1-0.3,0.1-0.4,0.1c-3-1.5-5.8-3.6-8.1-6.2c-0.6-0.6-1.1-1.4-1.6-2.1c-0.5-0.7-1-1.5-1.4-2.3
					c-0.8-1.6-1.5-3.3-1.9-5.1c-0.8-3.5-0.6-7.3,0.4-10.7c0.5-1.7,1.2-3.4,2-4.9c0.8-1.6,1.8-3,3-4.4c0.6-0.6,1.6-0.7,2.2-0.1
					c0.5,0.5,0.7,1.3,0.3,1.9L425.7,344.8z"/>
			</g>
			<g>
				<path d="M483,342.6c1.3,1.4,2.2,2.8,3.1,4.4c0.8,1.6,1.5,3.2,2,4.9c1,3.4,1.2,7.2,0.4,10.7c-0.4,1.8-1,3.5-1.9,5.1
					c-0.4,0.8-0.9,1.5-1.4,2.3c-0.5,0.7-1,1.4-1.6,2.1c-2.3,2.6-5.1,4.6-8.1,6.1c-0.1,0-0.1,0-0.2-0.1c0,0,0-0.1,0-0.1
					c2.4-2.3,4.5-4.8,6.2-7.5c1.7-2.7,2.7-5.6,3.1-8.5c0.3-3,0.1-6-0.7-8.9c-0.8-2.9-2-5.8-3.4-8.5l-0.1-0.1
					c-0.4-0.8-0.1-1.8,0.7-2.2C481.7,341.9,482.5,342.1,483,342.6z"/>
			</g>
			<g>
				<path d="M474.9,372.9c0.9-1.2,1.9-2.2,2.6-3.3c0.2-0.2,0.3-0.6,0.3-0.5c0,0,0,0.2,0.1,0.2c0.1,0.1,0.1,0.1,0.1,0.1
					c0,0-0.1,0-0.3,0c-0.7-0.1-1.4-0.1-2.1-0.1c-2.6,0-5.1,1.2-7.1,2.8c-1.1,0.8-2,1.8-2.9,2.8c-1,1.1-2.1,2.2-3.4,3.1
					c-2.5,1.8-5.6,2.9-8.8,2.9c-3.2,0.1-6.3-1.1-8.8-2.8c-1.3-0.9-2.4-1.9-3.4-3c-0.9-1-1.9-2-2.9-2.8c-2.1-1.7-4.5-2.8-7.2-2.8
					c-0.7,0-1.3,0.1-2.1,0.1c-0.2,0-0.3,0-0.3,0c0,0,0.1,0,0.1-0.1c0.1-0.1,0.1-0.2,0.1-0.2c0-0.1,0.1,0.3,0.3,0.5
					c0.7,1,1.8,2.1,2.6,3.2l0,0c0.1,0.1,0,0.2,0,0.3c-0.1,0-0.1,0-0.2,0c-1.4-0.6-2.6-1.4-3.6-2.6c-0.2-0.3-0.6-0.6-0.7-1.4
					c0-0.2,0-0.5,0.2-0.7c0.2-0.2,0.4-0.4,0.5-0.4c0.4-0.2,0.6-0.2,0.8-0.2c0.7-0.1,1.4-0.2,2.2-0.3c1.5-0.1,3.1,0.1,4.6,0.6
					c1.5,0.5,2.8,1.3,4.1,2.1c1.2,0.9,2.3,1.9,3.4,3c0.9,1,1.9,1.8,3,2.6c2.2,1.5,4.7,2.3,7.3,2.3c2.6,0,5.1-0.9,7.3-2.3
					c1.1-0.7,2.1-1.6,3-2.6c1-1.1,2.1-2.1,3.3-3c1.2-0.9,2.6-1.7,4-2.2c1.5-0.5,3.1-0.7,4.6-0.6c0.8,0,1.5,0.2,2.2,0.3
					c0.1,0,0.4,0,0.8,0.2c0.2,0.1,0.4,0.2,0.6,0.5c0.2,0.2,0.2,0.5,0.2,0.7c0,0.4-0.2,0.6-0.3,0.9c-0.1,0.2-0.3,0.4-0.4,0.5
					c-1.1,1.2-2.3,2-3.6,2.6c-0.1,0-0.2,0-0.2-0.1C474.8,373,474.8,373,474.9,372.9L474.9,372.9z"/>
			</g>
			<g>
				<path d="M484.7,368.4c0.1-1.6,0-3.2-0.5-4.7c-0.5-1.5-1.5-2.6-2.9-2.8c-1.4-0.3-2.9,0.1-4.3,0.7l-4.5,1.8
					c-3,1.2-6.1,2.3-9.3,3.2c-3.2,0.9-6.6,1.3-9.9,1.3c-3.3,0-6.7-0.4-9.9-1.2c-3.2-0.9-6.3-2-9.3-3.1l-4.5-1.7
					c-1.4-0.5-3-0.9-4.4-0.7c-1.4,0.2-2.5,1.4-3,2.9c-0.5,1.5-0.6,3.1-0.5,4.7c-0.4-1.6-0.5-3.3-0.2-4.9c0.2-0.8,0.5-1.7,1.1-2.4
					c0.6-0.7,1.4-1.3,2.3-1.5c1.8-0.5,3.6-0.2,5.2,0.3c1.6,0.5,3.1,1,4.7,1.5c3.1,0.9,6.2,2,9.3,2.7c3.1,0.7,6.2,1.1,9.4,1
					c3.2,0,6.3-0.4,9.3-1.1c3.1-0.7,6.1-1.8,9.2-2.8c1.5-0.5,3.1-1,4.6-1.5c1.6-0.5,3.4-0.8,5.2-0.4c0.9,0.2,1.7,0.8,2.3,1.5
					c0.6,0.7,0.9,1.6,1.1,2.4c0.4,1.7,0.2,3.4-0.1,5L484.7,368.4z"/>
			</g>
			<g>
				<path d="M429.3,340.4c3.1-2.5,6.9-4.1,10.7-5.1c3.9-1.1,7.8-1.6,11.8-1.7c2,0,4,0,6,0.2c2,0.2,4,0.4,5.9,0.9
					c3.9,0.8,7.7,2.2,11.1,4.3c0,0,0,0,0,0.1c0,0,0,0-0.1,0c-3.8-1.1-7.6-1.8-11.4-2.2c-1.9-0.2-3.8-0.4-5.7-0.4
					c-1.9-0.1-3.8-0.1-5.7,0c-3.8,0.1-7.6,0.4-11.4,1.1C436.7,338.1,433,339,429.3,340.4C429.3,340.5,429.3,340.5,429.3,340.4
					C429.3,340.5,429.3,340.4,429.3,340.4z"/>
			</g>
			<g>
				<path d="M467.7,343.4c0.1,6.7-0.4,13.5-2.1,20.1c-0.9,3.3-2,6.5-3.7,9.6c-0.9,1.5-1.9,3-3.3,4.2c-1.3,1.2-3.2,2.2-5.2,2.2
					c-2,0-3.9-1-5.2-2.2c-1.4-1.2-2.4-2.7-3.3-4.1c-1.8-3-2.9-6.2-3.8-9.5c-1.7-6.6-2.3-13.3-2.3-20.1c0.1-6.7,0.9-13.4,2.7-19.9
					c0.9-3.2,2.1-6.4,3.8-9.3c0.9-1.4,1.9-2.8,3.2-3.9c1.3-1.1,2.9-1.9,4.6-1.9c1.7,0,3.4,0.8,4.6,1.9c1.3,1.1,2.3,2.5,3.2,3.9
					c1.8,2.9,3,6,3.9,9.2C466.7,329.9,467.5,336.6,467.7,343.4z M466.5,343.4c0.1-6.6-0.5-13.3-2.2-19.8c-0.9-3.2-2-6.4-3.6-9.2
					c-0.9-1.4-1.9-2.8-3.1-3.8c-1.2-1.1-2.8-1.9-4.4-1.9c-1.6,0-3.2,0.8-4.4,1.9c-1.2,1.1-2.2,2.5-3,3.9c-1.7,2.9-2.8,6-3.6,9.2
					c-1.6,6.4-2.2,13.1-2.1,19.8c0.1,6.6,1,13.3,2.8,19.6c0.9,3.1,2.1,6.2,3.8,9c0.8,1.3,1.8,2.6,3,3.6c1.1,1,2.5,1.6,3.8,1.6
					c1.3,0,2.7-0.6,3.8-1.7c1.1-1,2.1-2.3,2.9-3.6c1.6-2.7,2.8-5.8,3.7-9C465.6,356.6,466.4,350,466.5,343.4z"/>
			</g>
		</g>
	</g>
</g>
<polygon class="st25" points="453.3,413.4 441.1,407.7 409.3,424 453.2,424 "/>
<g>
	<path d="M419.7,423.2l21.3-10.1c0.1,0,0.2,0,0.2,0l0,0l12.1,4.4c0.3,0.1,0.4,0.4,0.3,0.6c-0.1,0.3-0.4,0.4-0.6,0.3c0,0,0,0,0,0
		l-11.9-4.7l0.2,0L419.7,423.2z"/>
</g>
<polygon class="st25" points="453.8,413.4 466,407.7 497.8,424 453.6,424 "/>
<g>
	<path d="M487.4,423.2l-21.6-9.5l0.2,0l-11.9,4.7c-0.3,0.1-0.5,0-0.6-0.3s0-0.5,0.3-0.6c0,0,0,0,0,0l12.1-4.4l0,0c0.1,0,0.2,0,0.2,0
		L487.4,423.2z"/>
</g>
<linearGradient id="SVGID_9_" gradientUnits="userSpaceOnUse" x1="452.2584" y1="463.6892" x2="452.2584" y2="452.0608">
	<stop  offset="0" style="stop-color:#4E0B6D;stop-opacity:0"/>
	<stop  offset="1" style="stop-color:#4E0B6D"/>
</linearGradient>
<path class="st33" d="M411.3,440.7c0,0,1.6,27.2,41,27.2s40.9-27.2,40.9-27.2s-4.8,11.1-16.9,11.1S426,452,426,452
	S420,452.2,411.3,440.7z"/>
<g>
	<path d="M495.3,434.4c-0.4,2.1-0.8,4.3-1.5,6.4c-0.7,2.1-1.9,4.1-3.3,5.9c-1.5,1.8-3.3,3.3-5.3,4.5c-2,1.2-4.3,2-6.6,2.4
		c-0.6,0.1-1.2,0.2-1.8,0.2c-0.6,0-1.2,0.1-1.7,0.1l-3.2,0.1l-6.5,0.2c-4.3,0.1-8.7,0.1-13,0.1c-4.3,0-8.7,0-13-0.1l-6.5-0.2
		c-2.2-0.1-4.3,0-6.7-0.4c-4.7-0.7-9-3.1-12-6.6c-1.5-1.8-2.7-3.7-3.4-5.9c-0.8-2.1-1.1-4.3-1.5-6.4c0.5,1,0.9,2,1.3,3
		c0.2,0.5,0.4,1,0.7,1.5c0.2,0.5,0.5,0.9,0.7,1.4c1.1,1.8,2.4,3.4,3.9,4.8c3,2.7,6.9,4.3,10.8,4.6c0.5,0.1,1,0,1.5,0
		c0.5,0,1,0,1.6,0l3.2-0.1l6.5-0.2c4.3-0.1,8.7-0.1,13-0.1c4.3,0,8.7,0,13,0.1l6.5,0.2l3.2,0.1c0.6,0,1,0,1.5,0c0.5,0,1,0,1.5-0.1
		c3.9-0.4,7.7-2,10.7-4.8c1.5-1.4,2.8-3,3.8-4.9c0.5-0.9,0.9-1.9,1.4-2.9C494.5,436.4,494.9,435.4,495.3,434.4z"/>
</g>
<g>
	<path d="M495.3,426.5c-0.6,2.1-1,4.2-1.8,6.3c-0.8,2-2,3.9-3.4,5.6c-1.5,1.7-3.2,3.1-5.2,4.2c-2,1.1-4.1,1.8-6.3,2.1
		c-1.1,0.2-2.3,0.2-3.3,0.3l-3.2,0l-6.5,0.1l-13,0.1l-13-0.1L433,445c-2.2-0.1-4.3,0-6.6-0.2c-4.5-0.6-8.7-2.8-11.7-6
		c-1.5-1.6-2.7-3.5-3.6-5.5c-0.9-2-1.3-4.2-1.9-6.2l1.1,3c0.2,0.5,0.4,1,0.6,1.5c0.2,0.5,0.4,1,0.7,1.5c1,1.9,2.3,3.6,3.8,5.1
		c3,2.9,7,4.8,11.2,5.2c2,0.2,4.2,0,6.4,0l6.5-0.1l13-0.1l13,0.1l6.5,0.1l3.2,0c1.1,0,2.1,0,3.1-0.1c4.1-0.5,8.1-2.4,11-5.4
		c1.5-1.5,2.7-3.2,3.7-5.2c0.5-1,0.8-2,1.2-3L495.3,426.5z"/>
</g>
<line class="st25" x1="420.6" y1="424" x2="404.3" y2="424"/>
<line class="st25" x1="502.1" y1="424" x2="488.2" y2="424"/>
<path class="st39" d="M593.6,328.9l-15.6,8.7l-43.8,88c0,0,5.5,57.9-55.5,70.4c-12.8,2.5-12.6-6.9-12.2-16.7
	c0.3-7.3,13.4-12.1,13.4-12.1h-25.6h-0.9h-25.6c0,0,13,4.7,13.4,12.1c0.4,9.8,0.6,19.2-12.2,16.7c-61-12.5-55.5-70.4-55.5-70.4
	l-43.4-88l-16-8.7c0,0-7.1,87.8,9.2,135c16.5,40.6,68.3,87.6,89,105.3c5.5,4.7,12.5,7.3,19.7,7.3h21.7h0.3h21.7
	c7.2,0,14.2-2.6,19.7-7.3c20.8-17.8,72.5-64.8,89-105.3C600.7,416.7,593.6,328.9,593.6,328.9z"/>
<linearGradient id="SVGID_10_" gradientUnits="userSpaceOnUse" x1="353.2475" y1="451.7003" x2="294.5107" y2="451.3214">
	<stop  offset="0" style="stop-color:#4CEAF3;stop-opacity:0"/>
	<stop  offset="1" style="stop-color:#4CEAF3"/>
</linearGradient>
<path class="st35" d="M593.6,328.9l-15.6,8.7l-43.8,88c0,0,5.5,57.9-55.5,70.4c-12.8,2.5-12.6-6.9-12.2-16.7
	c0.3-7.3,13.4-12.1,13.4-12.1h-25.6h-0.9h-25.6c0,0,13,4.7,13.4,12.1c0.4,9.8,0.6,19.2-12.2,16.7c-61-12.5-55.5-70.4-55.5-70.4
	l-43.4-88l-16-8.7c0,0-7.1,87.8,9.2,135c16.5,40.6,68.3,87.6,89,105.3c5.5,4.7,12.5,7.3,19.7,7.3h21.7h0.3h21.7
	c7.2,0,14.2-2.6,19.7-7.3c20.8-17.8,72.5-64.8,89-105.3C600.7,416.7,593.6,328.9,593.6,328.9z"/>
<path class="st41" d="M369.9,523.3c6.9-39.7,41.5-70,83.3-70c42.2,0,77.1,30.9,83.5,71.2"/>
<g>
	<path class="st21" d="M331,463.9c-14.7-42.4-10.7-111.9-9.7-126.6l-4.6-2.7c0,0-6.8,82.1,9.5,129.2c16.5,40.6,68.3,87.6,89,105.3
		c5.5,4.7,12.5,7.3,19.7,7.3h4.8c-7.2,0-14.2-2.6-19.7-7.3C399.3,551.5,347.5,504.5,331,463.9z"/>
</g>
<polyline points="453.7,390.8 445.5,387.2 397.6,410.3 392.2,422.1 441.1,400.6 453.6,405.3 453.6,405.4 453.7,405.4 453.7,405.4 
	453.7,405.3 466.2,400.6 515.2,422.8 509.8,410.3 461.9,387.3 453.8,390.8 "/>
<path class="st42" d="M302.7,123c0,0,46.3,1,46.3,81.7s0,198.3,0,198.3"/>
<path class="st42" d="M604.6,123c0,0-46.3,1-46.3,81.7s0,198.3,0,198.3"/>
<g>
	<path d="M483.3,342.8c1.4,1.1,2.5,2.3,3.5,3.6c1,1.3,1.9,2.7,2.6,4.2c0.4,0.7,0.7,1.5,1,2.3c0.3,0.8,0.6,1.5,0.7,2.3
		c0.5,1.6,0.7,3.2,0.8,4.8c-0.5-1.5-1-3-1.7-4.4c-0.7-1.4-1.5-2.8-2.3-4c-0.9-1.3-1.9-2.5-2.9-3.6c-1-1.1-2.2-2.2-3.2-3.1l-0.1-0.1
		c-0.5-0.5-0.6-1.2-0.1-1.8C482,342.5,482.8,342.4,483.3,342.8z"/>
</g>
<g>
	<path d="M424.6,344.8c-1.1,0.9-2.2,2-3.2,3.1c-1,1.1-2,2.3-2.9,3.6c-0.9,1.3-1.7,2.6-2.3,4c-0.7,1.4-1.2,2.9-1.7,4.4
		c0.1-1.6,0.3-3.2,0.8-4.8c0.2-0.8,0.5-1.6,0.7-2.3c0.3-0.8,0.6-1.5,1-2.3c0.7-1.5,1.6-2.9,2.6-4.2c1-1.3,2.1-2.5,3.5-3.6
		c0.5-0.4,1.3-0.3,1.8,0.2C425.3,343.6,425.2,344.3,424.6,344.8L424.6,344.8z"/>
</g>
<path class="st41" d="M329.6,337.7V294c0-24.3-9.7-47.7-27-64.8l-1.2-1.2"/>
<path class="st41" d="M578.7,337.7V294c0-24.3,9.7-47.7,27-64.8l1.2-1.2"/>
<polygon points="536.6,237.1 485.9,243 485.9,261.3 534,248.9 558.3,258.6 558.3,248.3 "/>
<polygon points="370.3,237.1 421.1,243 421.1,261.3 373,248.9 348.6,258.6 348.6,248.3 "/>
<g>
	<g>
		<circle class="st43" cx="518.6" cy="283.3" r="8.9"/>
		<circle cx="518.6" cy="283.3" r="5.9"/>
		<circle class="st11" cx="524.1" cy="280.7" r="2.6"/>
		<g>
			<path d="M547.8,284.3c-4.9-1.9-9.7-3.7-14.6-5.1c-4.9-1.4-9.9-2.5-14.9-2.7c-5-0.3-10,0.2-14.8,1.5c-2.4,0.7-4.7,1.6-6.9,2.7
				c-1.1,0.5-2.2,1.2-3.2,1.8c-0.5,0.3-1,0.7-1.5,1c-0.5,0.4-1,0.8-1.3,1.1l-0.5-2.9l6.1,4.9l-7.6-1.7c-0.8-0.2-1.4-1-1.2-1.8
				c0.1-0.3,0.2-0.6,0.4-0.8l0.3-0.2c0.6-0.6,1.1-1,1.6-1.4c0.5-0.4,1.1-0.8,1.7-1.2c1.1-0.8,2.3-1.4,3.5-2.1c2.4-1.3,5-2.2,7.6-2.8
				c5.2-1.3,10.7-1.7,16-1.1c1.3,0.1,2.6,0.3,3.9,0.5c1.3,0.3,2.6,0.5,3.9,0.8l1.9,0.5l1.9,0.6c1.3,0.3,2.5,0.8,3.7,1.2
				C538.8,278.9,543.5,281.3,547.8,284.3z"/>
		</g>
	</g>
	<g>
		<circle class="st43" cx="389.7" cy="283.3" r="8.9"/>
		<circle cx="389.7" cy="283.3" r="5.9"/>
		<circle class="st11" cx="395.2" cy="280.7" r="2.6"/>
		<g>
			<path d="M358.5,284.3c4.3-3,8.9-5.4,13.9-7.2c1.2-0.4,2.5-0.9,3.7-1.2l1.9-0.6l1.9-0.5c1.3-0.3,2.6-0.5,3.9-0.8
				c1.3-0.2,2.6-0.4,3.9-0.5c5.3-0.6,10.7-0.2,16,1.1c2.6,0.7,5.2,1.6,7.6,2.8c1.2,0.6,2.4,1.3,3.5,2.1c0.6,0.4,1.1,0.8,1.7,1.2
				c0.6,0.5,1,0.9,1.6,1.4l0.3,0.3c0.6,0.6,0.6,1.6,0,2.2c-0.2,0.2-0.5,0.4-0.8,0.4l-7.6,1.7l6.1-4.9l-0.5,2.9
				c-0.3-0.3-0.8-0.7-1.3-1.1c-0.5-0.4-1-0.7-1.5-1c-1-0.7-2.1-1.3-3.2-1.8c-2.2-1.1-4.5-2-6.9-2.7c-4.8-1.3-9.8-1.8-14.8-1.5
				c-5,0.2-10,1.3-14.9,2.7C368.2,280.6,363.4,282.4,358.5,284.3z"/>
		</g>
	</g>
</g>
<path class="st42" d="M604.1,138c-28,54.5-84.7,91.8-150.2,91.8c-66.9,0-124.6-38.9-151.9-95.3"/>
<path class="st42" d="M558.3,64c-1.5,56.3-47.6,101.5-104.3,101.5c-57.2,0-103.6-46-104.3-103"/>
<path class="st21" d="M585.6,336.1c1.4,22.3,5.5,88.6-7.9,127.4c-16.5,40.6-66.5,88-87.2,105.7c-5.5,4.7-12.5,7.3-19.7,7.3h1.9
	c7.2,0,14.2-2.6,19.7-7.3c20.8-17.8,72.7-64.6,89.2-105.2c14.1-40.9,10-112.6,8.8-130.8L585.6,336.1z"/>
<g>
	<path d="M471.8,276.9c-0.6,4.2-0.9,8.4-1.1,12.5c-0.2,4.2-0.2,8.3,0,12.5c0.2,4.2,0.5,8.3,1,12.5c0.5,4.1,1.2,8.3,2.1,12.4
		c-1.7-3.9-2.8-8-3.6-12.2c-0.8-4.2-1.3-8.4-1.5-12.6c-0.2-4.2,0-8.5,0.4-12.7C469.7,285.1,470.5,280.9,471.8,276.9z"/>
</g>
<path class="st25" d="M582.5,538.8c82.2,31.8,167.2,66.5,242.8,111.8l27.4,14.5l35.9,299.6"/>
<rect x="436.3" y="634.8" class="st23" width="32.8" height="103.8"/>
<rect x="436.3" y="634.8" class="st44" width="32.8" height="103.8"/>
<circle class="st17" cx="452.7" cy="670.5" r="6.3"/>
<circle class="st17" cx="452.7" cy="709.3" r="6.3"/>
<circle class="st45" cx="452.7" cy="670.5" r="6.3"/>
<circle class="st45" cx="452.7" cy="709.3" r="6.3"/>
<path class="st46" d="M481,595c0,0.1,0,0.1,0,0.2c0,11.4-9.3,20.7-20.7,20.7"/>
<path class="st47" d="M742.5,572.7C683,673.6,573.2,741.2,447.7,741.2c-124,0-232.6-66-292.6-164.8"/>
<polygon class="st64" points="549.2,777.5 677.3,777.5 665.6,907.6 613.3,922.1 560.8,907.6 "/>
<polygon class="st65" points="613.3,911.2 655.7,899.3 665.8,787.3 613.3,787.3 "/>
<polygon class="st66" points="573.2,802.4 574.6,818.5 635.9,818.3 634.5,834.8 594.1,834.8 596.1,851.1 633.2,851.1 631.5,871.4 
	613.3,876.4 595.2,871.3 594,859.1 578.1,859.1 580.6,884.1 613.3,893.7 646.2,883.9 653.4,802.4 "/>
<path class="st74" d="M537.9,85.2c13.2,8.9,28.7,23,37.4,43"/>
<path class="st75" d="M593.6,328.9l-15.6,8.7l-43.8,88c0,0,5.5,57.9-55.5,70.4c-12.8,2.5-12.6-6.9-12.2-16.7
	c0.3-7.3,13.4-12.1,13.4-12.1h-25.6h-0.9h-25.6c0,0,13,4.7,13.4,12.1c0.4,9.8,0.6,19.2-12.2,16.7c-61-12.5-55.5-70.4-55.5-70.4
	l-43.4-88l-16-8.7c0,0-7.1,87.8,9.2,135c16.5,40.6,68.3,87.6,89,105.3c5.5,4.7,12.5,7.3,19.7,7.3h21.7h0.3h21.7
	c7.2,0,14.2-2.6,19.7-7.3c20.8-17.8,72.5-64.8,89-105.3C600.7,416.7,593.6,328.9,593.6,328.9z"/>
<path class="st18" d="M880.1,683.7l-3.5-32.8c0,0-156.4,91.8-175.3,184.3c-18.7,91.6-42.9,110.8-226.7,111.6
	c-185.1-0.8-251.8-20-270.5-111.6C185.2,742.7,28.8,650.9,28.8,650.9l-3.5,32.8L-4.4,964.8h473.4h10.3h430.3L880.1,683.7z"/>
<linearGradient id="SVGID_11_" gradientUnits="userSpaceOnUse" x1="1050.8641" y1="219.0473" x2="1050.8641" y2="174.3315">
	<stop  offset="1.082549e-07" style="stop-color:#D91C5C"/>
	<stop  offset="1" style="stop-color:#D91C5C;stop-opacity:0"/>
</linearGradient>
<path style="opacity:0.3;fill:url(#SVGID_11_);" d="M1053.7-537.9h-22.8c-133.6,0-226.3,162-209.3,309.6v0c0,0,12,132.4,35.7,269.1
	c8.5,48.7,33.1,92.1,68.5,123.3l63.5,52.4c9,7.4,29.8,11.5,41.4,11.5h22.1h-3.9h25.7c11.6,0,22.8-4.1,31.8-11.5l69.5-52.4
	c35.5-31.2,60.1-74.6,68.5-123.3c23.7-136.7,35.7-269.1,35.7-269.1v0c17-147.6-75.7-309.6-209.3-309.6H1048"/>
<linearGradient id="SVGID_12_" gradientUnits="userSpaceOnUse" x1="453.4357" y1="370.6727" x2="453.4357" y2="347.7791">
	<stop  offset="1.082549e-07" style="stop-color:#D91C5C"/>
	<stop  offset="1" style="stop-color:#D91C5C;stop-opacity:0"/>
</linearGradient>
<path style="opacity:0.2;fill:url(#SVGID_12_);" d="M420.1,364c0,0-6.9-29,33.1-29s33.7,29.5,33.7,29.5s-5-9.7-18.1-0.6
	c-8.4,2.1-10.3,2.7-15.6,3.1c-6.3-0.4-24-6.1-24-6.1s-6.9-3.7-8,5.2C421,365.4,420.1,364,420.1,364z"/>
</svg>
