<?xml version="1.0" encoding="utf-8"?>
<!-- Generator: Adobe Illustrator 24.2.1, SVG Export Plug-In . SVG Version: 6.00 Build 0)  -->
<svg version="1.1" xmlns="http://www.w3.org/2000/svg" xmlns:xlink="http://www.w3.org/1999/xlink" x="0px" y="0px"
	 viewBox="0 0 1410 1400" style="enable-background:new 0 0 1400 1400;" xml:space="preserve">
<style type="text/css">
	@keyframes rotation {
		from {
			transform: rotate(0deg);
		}
		to {
			transform: rotate(359deg);
		}
	}

	@-webkit-keyframes rotation {
		from {
			transform: rotate(0deg);
		}
		to {
			transform: rotate(359deg);
		}
	}

	.st3 {
		animation: rotation 30s infinite linear;
		-webkit-transform-origin: center;
		transform-origin: center;
	}

	.st0{display:none;}
	.st1{display:inline;fill:#13161D;}
	.st2{opacity:0.4;fill:url(#SVGID_1_);}
	.st3{fill:url(#SVGID_2_);}
	.st4{fill:#1F2B3D;}
	.st5{fill:#131A2E;}
	.st6{fill:#0F1023;}
	.st7{opacity:0.55;fill:url(#SVGID_3_);}
	.st8{opacity:0.55;fill:url(#SVGID_4_);}
	.st9{fill:#4CEAF3;}
	.st10{fill:none;stroke:#000000;stroke-width:12.899;stroke-miterlimit:10;}
	.st11{fill:#101923;}
	.st12{fill:none;stroke:#000000;stroke-width:7.7394;stroke-miterlimit:10;}
	.st13{fill:none;stroke:#000000;stroke-width:2.5798;stroke-linecap:round;stroke-linejoin:round;stroke-miterlimit:10;}
	.st14{fill:#C48349;}
	.st15{fill:#7C4631;}
	.st16{opacity:0.45;fill:url(#SVGID_5_);}
	.st17{fill:none;stroke:#000000;stroke-width:10.3192;stroke-miterlimit:10;}
	.st18{fill:#7D3F31;}
	.st19{fill:none;stroke:#000000;stroke-width:10.2176;stroke-miterlimit:10;}
	.st20{opacity:0.35;fill:url(#SVGID_6_);}
	.st21{opacity:0.79;fill:#7C4631;}
	.st22{opacity:0.45;fill:url(#SVGID_7_);}
	.st23{fill:#894A1A;}
	.st24{fill:none;stroke:#000000;stroke-width:1.12;stroke-miterlimit:10;}
	.st25{stroke:#000000;stroke-width:2.5798;stroke-miterlimit:10;}
	.st26{opacity:0.45;fill:url(#SVGID_8_);}
	.st27{fill:none;stroke:#000000;stroke-width:1.2899;stroke-miterlimit:10;}
	.st28{fill:none;stroke:#000000;stroke-width:1.9348;stroke-miterlimit:10;}
	.st29{fill:none;stroke:#000000;stroke-width:6.4495;stroke-miterlimit:10;}
	.st30{fill:none;stroke:#000000;stroke-width:4.5146;stroke-miterlimit:10;}
	.st31{fill:none;stroke:#000000;stroke-width:6.4495;stroke-linecap:round;stroke-linejoin:round;stroke-miterlimit:10;}
	.st32{fill:none;stroke:#000000;stroke-width:3.8697;stroke-linecap:round;stroke-linejoin:round;stroke-miterlimit:10;}
	.st33{fill:#1f2d3f;stroke:none;stroke-width:1.2899;stroke-miterlimit:10;}
	.st34{fill:none;stroke:#4CEAF3;stroke-width:2.5798;stroke-miterlimit:10;}
	
		.st35{opacity:0.3;fill:none;stroke:#FFFFFF;stroke-width:11.6091;stroke-linecap:round;stroke-linejoin:round;stroke-miterlimit:10;}
	.st36{fill:none;stroke:#000000;stroke-width:5.1596;stroke-miterlimit:10;}
	.st37{opacity:0.2;fill:url(#SVGID_9_);}
	.st38{opacity:0.7;}
	.st39{opacity:0.8;fill:#FFFFFF;}
</style>
<g id="Background" class="st0">
	<rect x="-50.7" y="-78.4" class="st1" width="1503.2" height="1551.9"/>
</g>
<g id="Pattern">
	<radialGradient id="SVGID_1_" cx="700.8753" cy="697.6808" r="341.6211" gradientUnits="userSpaceOnUse">
		<stop  offset="0" style="stop-color:#4CEAF3"/>
		<stop  offset="1" style="stop-color:#4CEAF3;stop-opacity:0"/>
	</radialGradient>
	<circle class="st2" cx="700.9" cy="697.7" r="341.6"/>
	<radialGradient id="SVGID_2_" cx="745.7806" cy="693.2526" r="1039.0961" gradientUnits="userSpaceOnUse">
		<stop  offset="0" style="stop-color:#00C3FF"/>
		<stop  offset="0.1194" style="stop-color:rgba(255, 255, 255, 1);stop-opacity:0.01"/>
		<stop  offset="0.3194" style="stop-color:rgba(255, 255, 255, 1);stop-opacity:0.01"/>
		<stop  offset="0.5279" style="stop-color:rgba(255, 255, 255, 1);stop-opacity:0.01"/>
		<stop  offset="0.7482" style="stop-color:rgba(255, 255, 255, 1);stop-opacity:0"/>
		<stop  offset="1" style="stop-color:#4CEAF3;stop-opacity:0"/>
	</radialGradient>
	<path class="st3" d="M1337.9,851.4c64.6-39.8,125.6-94.1,178.8-161.5l0,0c-54.8-66.1-117-118.9-182.5-157.1
		c-37.9,64.7-85.5,118.5-137.6,159.4l-2.1,0.9l0.7,0.3c-0.2,0.2-0.4,0.3-0.7,0.5l1.8,0h0l-1.8,0l0,0
		C1248.3,733.7,1298,786.8,1337.9,851.4z M1258.5,693.1l0.4,0c31.7-27.9,61.6-60.4,88.6-97.3c36.6,26.7,71.9,58.4,104.7,94.9l0,0
		c-32,37.3-66.5,69.9-102.6,97.5c-27.8-36.2-58.4-68-90.8-95.1L1258.5,693.1L1258.5,693.1z M1135.3,253.7
		c0.1-14.7-0.2-29.7-0.9-45.1c15-0.7,30.4-1.1,46.1-1.2l0,0c0.3,15.8,0.2,31.2-0.2,46.3C1164.9,253.4,1149.9,253.4,1135.3,253.7
		L1135.3,253.7z M76.7,707.7L76.7,707.7c-10.4,10.3-20.9,21.2-31.3,32.6c-11.2-10.1-22.3-20.6-33.4-31.8v0
		c10.9-11.4,21.8-22.3,32.9-32.6C55.4,687.1,66.1,697.7,76.7,707.7z M1562.4,689.3c-1.6-225.4-97.8-450-260.2-606.6
		c-160.6-158.4-387.5-249-612.9-245C463.8-160.8,239.2-64.5,82.6,97.8c-158.4,160.6-249,387.5-245,612.9
		c1.6,225.4,97.8,450.1,260.2,606.6c160.6,158.4,387.5,249,612.9,245c225.4-1.6,450-97.8,606.6-260.2
		C1475.7,1141.6,1566.4,914.7,1562.4,689.3z M1373.4,237.7c15.1,22.1,29.2,44.9,42.2,68.3c-6,33.9-14.1,66.4-24.1,97.5
		c29.4,14.2,58.6,30.8,87.2,49.8c8,25.5,14.8,51.4,20.4,77.5c-53.1-43.4-109.6-77.5-166.8-102C1354,370.6,1368.3,306.2,1373.4,237.7
		z M1270.3,115.3c-85.3-8-166.9-1.2-240.1,17.9c19.2,73.7,23.4,146,15.1,212.7l1-1v0l-1,1l0,0c0.3,0,0.5-0.1,0.8-0.1l0,0l0.2-0.1
		c66.2-9.7,138.2-7.2,211.8,10.1C1275.6,282.2,1280.4,200.4,1270.3,115.3c18.9,18.8,37.2,38.2,54.4,58.6c2,85.7-11,166.8-35.6,238.4
		c-72-24.6-143.6-34.3-210.7-30.6c-10.5-12.4-21.7-24.2-33.2-35.7c-11.9-11.2-24-22.1-36.7-32.4c2-67.2-9.4-138.4-35.7-209.8
		c71-26.3,151.7-41.4,237.4-41.5C1231.2,79.1,1251.1,96.9,1270.3,115.3z M1090.3,299.7c2.6-42,1-86.3-6.2-131.3
		c44.9-7.1,92.1-9.3,141.2-6.9l0,0c3.6,49.1,2.5,96.3-3.6,141.4c-45-6-89.1-6.6-130.9-3.1l0-0.2L1090.3,299.7z M705.6,1148.9
		c-118.4,1.7-234.6-44.6-319-127.5C301.5,939,252.4,824,251.1,705.6c-1.7-118.4,44.6-234.6,127.5-319
		c82.4-85,197.4-134.2,315.8-135.4c118.4-1.7,234.6,44.6,319,127.5c85,82.4,134.2,197.3,135.4,315.8c1.7,118.4-44.6,234.6-127.5,319
		C939,1098.4,824,1147.6,705.6,1148.9z M979.7,1107.9L979.7,1107.9c-2.3,53.7-13.4,109.6-34,165.1c-54.4-23.4-102.5-53.9-143.1-89.2
		c15.8-3.5,31.5-7.5,46.9-12.4c21.9,15.5,45.5,29.7,70.8,42.3c8.3-27,14.3-53.9,18.1-80.4C952.6,1125.5,966.3,1116.9,979.7,1107.9z
		 M492.5,1219.1c25-13.2,48.2-28,69.7-44.1l0,0c15.6,4.4,31.3,8.1,47.2,11.2l0,0c-39.6,36.3-87,68-140.8,92.7
		c-22-55-34.4-110.6-38.1-164.2l0,0c13.6,8.7,27.5,16.9,41.8,24.4h0C476.8,1165.5,483.5,1192.3,492.5,1219.1z M225,562.2L225,562.2
		c-4.4,15.6-8.1,31.3-11.2,47.2c-36.3-39.6-68-87-92.7-140.8c55-22,110.6-34.4,164.2-38.1l0,0c-8.7,13.6-16.9,27.5-24.4,41.8
		c-26.4,4.5-53.2,11.1-80,20.1C194.2,517.4,209,540.7,225,562.2z M216.2,802.6c3.5,15.8,7.5,31.5,12.4,46.9l0,0
		c-15.5,21.9-29.7,45.5-42.3,70.8c27,8.3,53.9,14.3,80.4,18.1c7.8,14.1,16.4,27.8,25.4,41.2c-53.7-2.3-109.6-13.4-165.1-34
		C150.4,891.3,180.9,843.2,216.2,802.6L216.2,802.6z M420.3,292.1c2.3-53.7,13.4-109.6,34-165.1c54.4,23.4,102.5,53.9,143.1,89.2
		l0,0c-15.8,3.5-31.5,7.5-46.9,12.4c-21.9-15.5-45.5-29.7-70.8-42.3c-8.3,27-14.3,53.9-18.1,80.4
		C447.4,274.5,433.7,283.1,420.3,292.1z M907.5,180.9c-25,13.2-48.2,28-69.7,44.1v0c-15.6-4.4-31.3-8.1-47.2-11.2
		c39.6-36.3,87-68,140.8-92.7c22,55,34.5,110.6,38.1,164.2l0,0c-13.6-8.7-27.5-16.9-41.8-24.4l0,0
		C923.2,234.5,916.5,207.7,907.5,180.9z M1139.1,927.7L1139.1,927.7c26.4-4.5,53.2-11.1,80-20.1c-13.2-25-28-48.2-44.1-69.7
		c4.4-15.6,8.1-31.3,11.2-47.2c36.3,39.6,68,87,92.7,140.8c-55,22-110.6,34.4-164.2,38.1C1123.4,955.9,1131.6,942,1139.1,927.7z
		 M1183.8,597.4L1183.8,597.4c-3.5-15.8-7.5-31.5-12.4-46.9c15.5-21.9,29.7-45.5,42.3-70.8c-27-8.3-53.9-14.3-80.4-18.1
		c-7.8-14.1-16.4-27.8-25.4-41.2l0,0c53.7,2.3,109.6,13.4,165.1,34C1249.6,508.7,1219.1,556.8,1183.8,597.4z M927.3-84.6
		c19.7,28.2,37,56.9,52,85.9c30.8-10.8,63.2-19.7,96.9-26.5c23.7,12.4,46.9,25.9,69.3,40.4c-68.3,6.8-132.4,22.7-190.1,45.9
		C929.5,4.6,894-51,849.3-103C875.5-98,901.6-91.9,927.3-84.6z M689.8-116.7L689.8-116.7L689.8-116.7c26.7-0.1,53.4,0.8,80,2.9
		C831.8-54.2,880,11.7,913.2,80c-68.2,33.3-125.9,77.6-170.8,127.3c-16.2-1.3-32.4-1.8-48.6-1.8c-16.3,0.4-32.5,1.3-48.7,3
		c-46-48.6-104.8-91.5-173.7-123.1C503,16.4,549.5-50.7,609.9-111.8C636.5-114.6,663.1-116.2,689.8-116.7z M306-15.5
		c33.9,6,66.4,14.1,97.5,24.1c14.2-29.4,30.8-58.6,49.8-87.2c25.5-8,51.4-14.8,77.5-20.4C487.4-46,453.3,10.5,428.9,67.8
		C370.6,46,306.2,31.7,237.7,26.6C259.8,11.6,282.6-2.5,306-15.5z M115.3,129.7L115.3,129.7L115.3,129.7
		c18.8-18.9,38.2-37.2,58.6-54.4c85.7-2,166.8,11,238.4,35.6c-24.6,72-34.3,143.6-30.6,210.7c-12.3,10.5-24.2,21.7-35.7,33.1
		c-9.9-66.5-7.4-138.8,10-212.8C282.2,124.4,200.4,119.6,115.3,129.7L115.3,129.7c-8,85.3-1.2,166.9,17.9,240.1
		c73.7-19.2,146-23.4,212.7-15.1l0,0h0l0,0c-11.2,11.9-22.1,24-32.4,36.7c-67.2-2-138.4,9.4-209.8,35.7
		c-26.3-71-41.4-151.7-41.5-237.4C79.1,168.8,96.9,148.9,115.3,129.7z M299.9,309.7L299.9,309.7L299.9,309.7
		c-42.1-2.6-86.5-1-131.5,6.2c-7.1-44.9-9.3-92.1-6.9-141.2l0,0c49.1-3.6,96.3-2.5,141.4,3.6C296.9,223.4,296.3,267.8,299.9,309.7z
		 M-84.6,472.7c28.2-19.7,56.9-37,85.9-52c-10.8-30.8-19.7-63.2-26.5-96.9c12.4-23.7,25.9-46.9,40.4-69.3
		c6.8,68.3,22.7,132.4,45.9,190.1C4.6,470.5-51,506-103,550.7C-98,524.5-91.9,498.5-84.6,472.7z M-113.8,630.1
		C-54.2,568.2,11.7,520,80,486.8c33.3,68.2,77.6,125.9,127.3,170.8l0,0c-1.3,16.2-1.8,32.4-1.8,48.6
		c-53.8-39.8-103.5-93-143.4-157.5c-64.6,39.8-125.6,94.1-178.8,161.5C-116.8,683.4-115.9,656.7-113.8,630.1z M140.9,706.7
		c0.1,0.1,0.2,0.1,0.3,0.2l0.1,0l0,0l-0.1,0c-31.7,27.9-61.6,60.4-88.6,97.3c-36.6-26.7-71.9-58.4-104.7-94.9v0
		c32-37.3,66.5-69.9,102.6-97.5C78.1,648,108.6,679.7,140.9,706.7L140.9,706.7L140.9,706.7z M-116.7,710.2
		C-61.9,776.2,0.3,829,65.8,867.3c38.4-65.6,86.8-119.9,139.7-161.1h0l0,0h0c0.4,16.3,1.3,32.5,3,48.7
		c-48.6,46-91.5,104.8-123.1,173.7C16.4,897-50.7,850.5-111.8,790.1C-114.6,763.5-116.2,736.9-116.7,710.2z M26.6,1162.3
		c-15.1-22.1-29.2-44.9-42.2-68.3c6-33.9,14.1-66.4,24.1-97.5c-29.4-14.2-58.6-30.8-87.2-49.8c-8-25.5-14.8-51.4-20.4-77.5
		c53.1,43.4,109.6,77.5,166.8,102C46,1029.4,31.7,1093.8,26.6,1162.3z M129.7,1284.7c85.3,8,166.9,1.2,240.1-17.9
		c-19.2-73.7-23.4-146-15.1-212.7l0,0l0,0l0,0l0,0c-66.5,9.9-138.8,7.4-212.8-10C124.4,1117.8,119.6,1199.6,129.7,1284.7
		c-18.9-18.8-37.2-38.2-54.4-58.6c-2-85.7,11-166.8,35.6-238.4c72,24.6,143.6,34.3,210.7,30.6c10.5,12.4,21.7,24.2,33.2,35.7
		c11.9,11.2,24,22.1,36.7,32.4c-2,67.2,9.4,138.4,35.7,209.8c-71,26.3-151.7,41.4-237.4,41.5
		C168.8,1320.9,148.9,1303.1,129.7,1284.7z M309.7,1100.1L309.7,1100.1L309.7,1100.1c-2.6,42.1-1,86.5,6.2,131.5
		c-44.9,7.1-92.1,9.3-141.2,6.9l0,0c-3.6-49.1-2.5-96.3,3.6-141.4C223.4,1103.1,267.8,1103.7,309.7,1100.1z M472.7,1484.6
		c-19.7-28.2-37-56.9-52-85.9c-30.8,10.8-63.2,19.7-96.9,26.5c-23.7-12.4-46.9-25.9-69.3-40.4c68.3-6.8,132.4-22.7,190.1-45.9
		c25.9,56.6,61.3,112.3,106.1,164.3C524.5,1498,498.4,1491.9,472.7,1484.6z M630.1,1513.8c-61.9-59.5-110.1-125.4-143.3-193.7
		c68.2-33.3,125.9-77.6,170.8-127.3l0,0c16.2,1.3,32.4,1.8,48.6,1.8c-39.8,53.8-93,103.5-157.5,143.4
		c39.8,64.6,94.1,125.6,161.5,178.8C683.4,1516.8,656.7,1515.9,630.1,1513.8z M804.3,1347.5c-26.7,36.6-58.4,71.9-94.9,104.7h0
		c-37.3-32-69.9-66.5-97.5-102.6c36.2-27.8,68-58.4,95.1-90.8l0,0l0,0C734.8,1290.6,767.3,1320.5,804.3,1347.5z M710.2,1516.7
		c66.1-54.8,118.9-117,157.1-182.5c-65.6-38.4-119.9-86.8-161.1-139.7c16.3-0.4,32.5-1.3,48.7-3c46,48.6,104.8,91.5,173.7,123.1
		c-31.6,69.1-78.1,136.2-138.5,197.2C763.5,1514.6,736.9,1516.2,710.2,1516.7z M1094,1415.5c-33.9-6-66.4-14.1-97.5-24.1
		c-14.2,29.4-30.8,58.6-49.8,87.2c-25.5,8-51.4,14.8-77.5,20.4c43.4-53.1,77.5-109.6,102-166.8c58.3,21.8,122.7,36.1,191.2,41.1
		C1140.2,1388.4,1117.4,1402.5,1094,1415.5z M1226.1,1324.8c-85.7,2-166.8-11-238.4-35.6c24.6-72,34.3-143.6,30.6-210.7l0,0
		c12.3-10.5,24.2-21.7,35.7-33.1c0,0.1,0,0.2,0,0.3l-0.1,0l0.2,0.7c9.7,66.2,7.2,138.2-10.1,211.9c73.7,17.4,155.5,22.2,240.6,12.2
		C1265.9,1289.2,1246.4,1307.5,1226.1,1324.8z M1100.1,1090.3l-1.6-1.6l0,0L1100.1,1090.3c42.1,2.6,86.5,1,131.5-6.2
		c7.1,44.9,9.3,92.1,6.9,141.2l0,0c-49.1,3.6-96.3,2.5-141.4-3.6C1103.1,1176.6,1103.7,1132.2,1100.1,1090.3z M1284.7,1270.3
		c8-85.3,1.2-166.9-17.9-240.1c-73.7,19.2-146,23.4-212.7,15.1l0.4,0.4h0l-0.4-0.4c11.2-11.9,22.1-24,32.4-36.7
		c67.2,2,138.4-9.4,209.8-35.7c26.3,71,41.4,151.7,41.5,237.4C1320.9,1231.2,1303.1,1251.1,1284.7,1270.3z M1484.6,927.3
		c-28.2,19.7-56.9,37-85.9,52c10.8,30.8,19.7,63.2,26.5,96.9c-12.4,23.7-25.9,46.9-40.4,69.3c-6.8-68.3-22.7-132.4-45.9-190.1
		c56.6-25.9,112.3-61.3,164.3-106.1C1498,875.5,1491.9,901.6,1484.6,927.3z M1513.8,769.9c-59.5,61.9-125.4,110.1-193.7,143.3
		c-33.3-68.2-77.6-125.9-127.3-170.8l0,0c1.3-16.2,1.8-32.4,1.8-48.6c-0.4-16.3-1.3-32.5-3-48.7c48.6-46,91.5-104.8,123.1-173.7
		c69.1,31.6,136.2,78.1,197.2,138.5c2.8,26.6,4.4,53.2,4.9,79.9l0,0l0,0C1516.8,716.6,1515.9,743.3,1513.8,769.9z M659.7,45.4
		c10.1-11.2,20.6-22.3,31.8-33.4l0,0c11.4,10.9,22.2,21.8,32.6,32.9c-11.1,10.5-21.7,21.2-31.8,31.8l0,0
		C681.9,66.2,671.1,55.7,659.7,45.4z M1192.5,1180.5c-15.8,0.3-31.2,0.2-46.3-0.2c0.4-15.4,0.3-30.3,0-45l0,0
		c14.7,0.1,29.7-0.2,45.1-0.9C1192.1,1149.3,1192.5,1164.7,1192.5,1180.5L1192.5,1180.5z M1323.3,692.3L1323.3,692.3
		c10.4-10.3,20.9-21.2,31.3-32.6c11.2,10.1,22.3,20.6,33.4,31.8l0,0c-10.9,11.4-21.8,22.3-32.8,32.6
		C1344.6,712.9,1333.9,702.3,1323.3,692.3z M264.7,1146.2L264.7,1146.2c-0.1,14.7,0.2,29.7,0.9,45.1c-15,0.7-30.4,1.1-46.1,1.2l0,0
		c-0.3-15.8-0.2-31.2,0.2-46.3C235.1,1146.6,250.1,1146.6,264.7,1146.2z M707.7,1323.3L707.7,1323.3c10.3,10.4,21.2,20.9,32.6,31.3
		c-10.1,11.2-20.6,22.3-31.8,33.4l0,0c-11.4-10.9-22.2-21.8-32.6-32.9C687.1,1344.6,697.7,1333.9,707.7,1323.3z M532.7,65.8
		c65.6,38.4,119.9,86.8,161.1,139.7l0,0c39.8-53.8,93-103.5,157.5-143.4C811.6-2.5,757.3-63.5,689.9-116.7l0,0
		C623.8-61.9,571,0.3,532.7,65.8z M690.6-52.2L690.6-52.2c37.3,32,69.9,66.5,97.5,102.6c-36.2,27.8-68,58.4-95.1,90.8l0,0l0,0
		c-27.9-31.7-60.4-61.6-97.3-88.6C622.4,15.9,654.2-19.4,690.6-52.2z M253.8,264.7L253.8,264.7c-14.7-0.1-29.7,0.2-45.1,0.9
		c-0.7-15-1.1-30.4-1.2-46.1l0,0c15.8-0.3,31.2-0.2,46.3,0.2C253.4,235.1,253.4,250.1,253.8,264.7z"/>
</g>
<g id="Character">
	<path class="st4" d="M1246,1013.9l-16.6-10.9C1119,930.4,999.9,872,874.9,829.2l0,0H714.1h-14.3H524.7l0,0
		c-125,42.8-244,101.2-354.4,173.8l-16.6,10.9l-42.5,403.5h588.7h14.3h574.3L1246,1013.9z"/>
	<path class="st5" d="M679.5,829.2H524.7l0,0c-125,42.8-244,101.2-354.4,173.8l-16.6,10.9l-42.5,403.5h568.4V829.2z"/>
	<path class="st6" d="M1252,1054.9l-4.5-42.3c0,0-201.8,118.4-226.1,237.7c-24.1,118.1-55.3,142.9-292.5,144
		c-238.8-1.1-324.8-25.8-348.9-144c-24.3-119.3-226.1-237.7-226.1-237.7l-4.5,42.3l-38.2,362.5h610.7h13.3h555.1L1252,1054.9z"/>
	<linearGradient id="SVGID_3_" gradientUnits="userSpaceOnUse" x1="530.864" y1="939.6364" x2="426.26" y2="744.1148">
		<stop  offset="0" style="stop-color:#4CEAF3;stop-opacity:0"/>
		<stop  offset="1" style="stop-color:#4CEAF3"/>
	</linearGradient>
	<path class="st7" d="M1246,1013.9l-16.6-10.9C1119,930.4,999.9,872,874.9,829.2l0,0H714.1h-14.3H524.7l0,0
		c-125,42.8-244,101.2-354.4,173.8l-16.6,10.9l-42.5,403.5h588.7h14.3h574.3L1246,1013.9z"/>
	<linearGradient id="SVGID_4_" gradientUnits="userSpaceOnUse" x1="844.5876" y1="951.597" x2="929.6395" y2="769.762">
		<stop  offset="0" style="stop-color:#4CEAF3;stop-opacity:0"/>
		<stop  offset="1" style="stop-color:#4CEAF3"/>
	</linearGradient>
	<path class="st8" d="M1246,1013.9l-16.6-10.9C1119,930.4,999.9,872,874.9,829.2l0,0H714.1h-14.3H524.7l0,0
		c-125,42.8-244,101.2-354.4,173.8l-16.6,10.9l-42.5,403.5h588.7h14.3h574.3L1246,1013.9z"/>
	<path class="st9" d="M165.7,1021.6l16.6-10.9c110.4-72.6,232.6-124.9,357.6-167.8l0.1,5h175.1h14.3l161.4,7.4l4.4,1
		c125,42.8,239.1,92.9,349.5,165.5l2.2,1.5l-1-9.4l-16.6-10.9C1119,930.4,999.9,872,874.9,829.2h0H714.1h-14.3H524.7l0,0
		c-125,42.8-244,101.2-354.4,173.8l-16.6,10.9l-42.5,403.5h2.4L165.7,1021.6z"/>
	<path class="st10" d="M1246,1013.9l-16.6-10.9C1119,930.4,999.9,872,874.9,829.2l0,0H714.1h-14.3H524.7l0,0
		c-125,42.8-244,101.2-354.4,173.8l-16.6,10.9l-42.5,403.5h588.7h14.3h574.3L1246,1013.9z"/>
	<g>
		<g>
			<path d="M156.7,1011.8c0.8,0.2,1.3,0.4,1.9,0.7l1.8,0.7c1.2,0.5,2.3,1,3.5,1.5c2.3,1,4.5,2.1,6.7,3.2c4.4,2.3,8.6,4.7,12.8,7.4
				c8.3,5.3,16,11.2,23.4,17.7c14.7,12.9,27.5,27.8,38.4,43.8c11,16,20.1,33.2,27.7,51c7.6,17.8,13.4,36.3,18.1,54.9
				c9.2,37.4,13.5,75.8,14.2,114.2c0.1,9.6,0.1,19.2-0.2,28.7l-0.9,28.6c-0.3,9.5-0.6,19.1-1,28.6c-0.3,9.5-0.7,19.1-1.1,28.6
				c-0.2-9.6-0.3-19.1-0.4-28.7c-0.1-9.6-0.2-19.1-0.2-28.7l-0.1-28.7c0-4.8-0.2-9.5-0.3-14.3c-0.1-4.8-0.4-9.5-0.6-14.3
				c-0.3-4.8-0.5-9.5-0.8-14.2c-0.4-4.7-0.7-9.5-1.2-14.2c-0.8-9.5-1.9-18.9-3.2-28.3c-1.4-9.4-2.9-18.8-4.7-28.1
				c-1.9-9.3-4-18.5-6.4-27.7c-4.9-18.3-11-36.2-18.6-53.5c-7.6-17.3-16.6-33.9-27.4-49.3c-5.4-7.7-11.1-15.1-17.4-22.1
				c-6.2-7-12.8-13.7-19.9-19.8c-7-6.2-14.5-11.8-22.3-16.8c-3.9-2.5-7.9-4.8-12-7c-2-1.1-4.1-2.1-6.2-3c-1-0.5-2.1-0.9-3.1-1.3
				l-1.6-0.6c-0.5-0.2-1.1-0.4-1.5-0.5l-0.1,0c-2.4-0.8-3.7-3.3-2.9-5.7S154.3,1011.1,156.7,1011.8z"/>
		</g>
		<g>
			<path d="M299.8,1284.1c-2.6-11.4-5.4-22.6-8.6-33.7c-3.2-11.1-6.7-22-10.7-32.8c-2-5.4-4.1-10.7-6.3-16c-1.1-2.7-2.3-5.2-3.4-7.9
				c-1.2-2.6-2.4-5.2-3.7-7.8c-5-10.4-10.7-20.3-16.9-30.3c8.3,8.3,15.4,17.7,21.4,27.8c3,5,5.7,10.3,8.3,15.6
				c1.3,2.7,2.4,5.4,3.6,8.1c0.6,1.4,1.1,2.7,1.6,4.1c0.5,1.4,1.1,2.7,1.6,4.1c4.1,11,7.2,22.4,9.5,33.8c1.1,5.7,2.1,11.5,2.7,17.3
				C299.4,1272.4,299.9,1278.2,299.8,1284.1z"/>
		</g>
	</g>
	<g>
		<g>
			<path d="M1249.1,1018.5c-0.4,0.1-1,0.3-1.5,0.5l-1.6,0.6c-1,0.4-2.1,0.9-3.1,1.3c-2.1,0.9-4.2,1.9-6.2,3c-4.1,2.1-8.1,4.5-12,7
				c-7.8,5-15.3,10.7-22.3,16.8c-7,6.1-13.6,12.8-19.9,19.8c-6.2,7-12,14.4-17.4,22.1c-10.8,15.4-19.8,32-27.4,49.3
				c-7.6,17.3-13.7,35.2-18.6,53.5c-2.4,9.2-4.5,18.4-6.4,27.7c-1.9,9.3-3.4,18.7-4.7,28.1c-1.2,9.4-2.4,18.8-3.2,28.3
				c-0.5,4.7-0.8,9.5-1.2,14.2c-0.3,4.7-0.6,9.5-0.8,14.2c-0.2,4.8-0.5,9.5-0.6,14.3c-0.1,4.8-0.3,9.5-0.3,14.3l-0.1,28.7
				c0,9.6-0.1,19.1-0.2,28.7c-0.1,9.6-0.2,19.1-0.4,28.7c-0.4-9.5-0.8-19.1-1.1-28.6c-0.4-9.5-0.7-19.1-1-28.6l-0.9-28.6
				c-0.3-9.5-0.3-19.2-0.2-28.7c0.7-38.3,5-76.7,14.2-114.2c4.7-18.7,10.5-37.1,18.1-54.9c7.6-17.8,16.7-35,27.7-51
				c10.9-16,23.7-30.9,38.4-43.8c7.3-6.4,15.1-12.4,23.4-17.7c4.1-2.6,8.4-5.1,12.8-7.4c2.2-1.1,4.4-2.2,6.7-3.2
				c1.1-0.5,2.3-1,3.5-1.5l1.8-0.7c0.6-0.2,1.2-0.4,1.9-0.7c2.4-0.8,4.9,0.5,5.7,2.9S1251.6,1017.7,1249.1,1018.5L1249.1,1018.5z"/>
		</g>
		<g>
			<path d="M1103.4,1282.1c-0.1-5.9,0.4-11.7,1-17.5c0.6-5.8,1.6-11.6,2.7-17.3c2.3-11.5,5.5-22.8,9.5-33.8c0.5-1.4,1-2.8,1.6-4.1
				c0.5-1.4,1.1-2.7,1.6-4.1c1.2-2.7,2.3-5.4,3.6-8.1c2.5-5.3,5.2-10.5,8.3-15.6c6-10.1,13.1-19.6,21.4-27.8
				c-6.2,9.9-11.9,19.9-16.9,30.3c-1.3,2.6-2.5,5.2-3.7,7.8c-1.1,2.6-2.4,5.2-3.4,7.9c-2.3,5.3-4.4,10.6-6.3,16
				c-4,10.8-7.5,21.7-10.7,32.8C1108.8,1259.5,1105.9,1270.7,1103.4,1282.1z"/>
		</g>
	</g>
	<path class="st11" d="M700.7,1019.5c104.2,0,189.7-79.9,198.6-181.8c-8.1-2.9-16.2-5.8-24.4-8.6l0,0H714.1h-14.3H524.7l0,0
		c-7.6,2.6-15.1,5.3-22.7,8C510.7,939.3,596.3,1019.5,700.7,1019.5z"/>
	<path class="st9" d="M507.4,855.5c7.5-2.7,15.1-5.4,22.7-8l0,0h175.1h14.3l156.3,2.5l1.5,0.7c5.7,1.9,15.2,4.6,20.9,6.6
		c0.9-5.2,0.7-14.2,1.2-19.5c-8.1-2.9-16.2-5.8-24.4-8.6h0H714.1h-14.3H524.7l0,0c-7.6,2.6-15.1,5.3-22.7,8
		c1.4,16.8,4.9,32.9,10.2,48.3C509.9,875.7,508.2,865.7,507.4,855.5z"/>
	<path class="st12" d="M700.7,1019.5c104.2,0,189.7-79.9,198.6-181.8c-8.1-2.9-16.2-5.8-24.4-8.6l0,0H714.1h-14.3H524.7l0,0
		c-7.6,2.6-15.1,5.3-22.7,8C510.7,939.3,596.3,1019.5,700.7,1019.5z"/>
	<path class="st13" d="M531.5,867.9c-106,41-215.7,85.8-313.2,144.2l-31,20.5l-50.5,384.8"/>
	<path class="st14" d="M703,991.8h-3.4c-95,0-172-77-172-172V636.9h347.4v182.9C874.9,914.8,798,991.8,703,991.8z"/>
	<path class="st15" d="M777.4,750.3c0,0,7.1,74.7-71.5,90.8c-7.1,1.4-11.1,0-13.4-3.2v-24.2c4.7-6,14.8-9.7,14.8-9.7h-14.8V636.9
		H527.6v182.9c0,92.6,73.2,168.1,164.9,171.8v-46.8h9.4c9.3,0,18.4-3.3,25.5-9.4c26.8-22.9,93.5-83.5,114.8-135.9
		c17-49.1,14.3-132.4,12.6-162.7h-21L777.4,750.3z"/>
	<linearGradient id="SVGID_5_" gradientUnits="userSpaceOnUse" x1="556.5099" y1="815.2153" x2="542.3346" y2="815.4597">
		<stop  offset="0" style="stop-color:#4CEAF3;stop-opacity:0"/>
		<stop  offset="1" style="stop-color:#4CEAF3"/>
	</linearGradient>
	<path class="st16" d="M777.4,750.3c0,0,7.1,74.7-71.5,90.8c-7.1,1.4-11.1,0-13.4-3.2v-24.2c4.7-6,14.8-9.7,14.8-9.7h-14.8V636.9
		H527.6v182.9c0,92.6,73.2,168.1,164.9,171.8v-46.8h9.4c9.3,0,18.4-3.3,25.5-9.4c26.8-22.9,93.5-83.5,114.8-135.9
		c17-49.1,14.3-132.4,12.6-162.7h-21L777.4,750.3z"/>
	<path class="st9" d="M540.7,819.9V636.9h-13.1v182.9c0,95,77,172,172,172h3.4c1.6,0,3.2,0,4.8-0.1
		C615.1,989.2,540.7,913.2,540.7,819.9z"/>
	<path class="st9" d="M865.5,636.9v182.9c0,94-75.4,170.3-168.9,171.9c1,0,2,0,3,0h3.4c95,0,172-77,172-172V636.9H865.5z"/>
	<path class="st17" d="M703,991.8h-3.4c-95,0-172-77-172-172V636.9h347.4v182.9C874.9,914.8,798,991.8,703,991.8z"/>
	
		<ellipse transform="matrix(0.2729 -0.962 0.962 0.2729 111.1877 1273.964)" class="st18" cx="898.4" cy="563.4" rx="68.6" ry="32.4"/>
	<path class="st9" d="M917.1,497.4c-7.1-2-15,1.1-22.6,8c4.2-1.7,8.3-2.2,12.2-1.1c17.2,4.9,22.8,38.4,12.5,74.8
		c-6.1,21.5-16.4,39.2-27.3,49.1c14.5-6,29.7-27.8,37.8-56C940,535.8,934.4,502.3,917.1,497.4z"/>
	
		<ellipse transform="matrix(0.2729 -0.962 0.962 0.2729 111.1877 1273.964)" class="st19" cx="898.4" cy="563.4" rx="68.6" ry="32.4"/>
	<g>
		<path d="M914.4,568c-1.9,6.5-4.2,12.9-7.5,19c-1.6,3-3.5,6-6,8.6c-1.2,1.3-2.6,2.6-4.4,3.5c-1.7,1-4,1.5-6.3,1.1
			c-2.3-0.5-4.3-2-5.6-3.7c-1.3-1.7-2.2-3.5-2.9-5.3c-1.3-3.6-1.9-7.3-2.1-10.9c-0.4-7.3,0.6-14.4,2.6-21.3c2-6.8,4.8-13.5,9-19.5
			c2.1-3,4.5-5.8,7.5-8.2c1.5-1.2,3.2-2.3,5.2-3c2-0.7,4.4-1,6.7-0.2c2.2,0.8,3.9,2.5,4.8,4.2c1,1.7,1.5,3.5,1.9,5.3
			c0.7,3.5,0.7,7,0.6,10.4C917.6,554.8,916.3,561.4,914.4,568z M914.4,568c1.8-6.5,2.8-13.3,2.4-20.1c-0.2-3.3-0.8-6.7-1.9-9.7
			c-0.6-1.5-1.3-2.9-2.3-4c-0.9-1.1-2-1.8-3.1-1.9c-2.1-0.3-4.5,1.4-6.4,3.5c-2,2.2-3.7,4.9-5.2,7.6c-3,5.6-5.2,11.7-7,17.8
			c-1.7,6.2-3,12.5-3.4,18.8c-0.2,3.1-0.2,6.3,0.4,9.2c0.5,2.9,1.7,5.5,3.6,6.4c1,0.4,2.3,0.5,3.6,0c1.4-0.4,2.7-1.2,4-2.2
			c2.6-1.9,4.8-4.5,6.7-7.2C909.8,580.8,912.6,574.5,914.4,568z"/>
	</g>
	<g>
		<path d="M904.6,569c-1.1,3.7-2.4,7.4-4.2,10.9c-0.9,1.7-1.9,3.5-3.3,5c-0.4,0.4-0.7,0.8-1.1,1.1c-0.2,0.2-0.4,0.4-0.6,0.5
			l-0.7,0.5c-1,0.6-2.3,1-3.8,0.7c-1.4-0.3-2.6-1.2-3.4-2.2l-0.6-0.8c-0.2-0.3-0.3-0.5-0.5-0.8c-0.3-0.5-0.5-1-0.7-1.6
			c-0.8-2.1-1.2-4.3-1.3-6.4c-0.3-4.2,0.3-8.4,1.4-12.3c1.2-3.9,2.8-7.8,5.3-11.2c1.2-1.7,2.6-3.3,4.5-4.7c0.5-0.3,0.9-0.7,1.5-1
			c0.3-0.1,0.5-0.3,0.8-0.4l0.9-0.3c1.2-0.4,2.7-0.6,4-0.1c1.4,0.5,2.3,1.6,2.9,2.6l0.4,0.8c0.1,0.3,0.2,0.5,0.3,0.8
			c0.2,0.5,0.3,1,0.4,1.5c0.4,2,0.4,4,0.2,6C906.4,561.5,905.6,565.3,904.6,569z M904.6,569c1-3.7,1.6-7.6,1.3-11.4
			c-0.1-1.9-0.5-3.8-1.2-5.5c-0.2-0.4-0.3-0.8-0.6-1.2l-0.3-0.5l-0.4-0.5c-0.5-0.6-1.1-0.9-1.6-0.9c-0.5,0-1,0.2-1.6,0.5l-0.4,0.3
			l-0.4,0.4c-0.3,0.2-0.5,0.6-0.8,0.8c-1.1,1.2-2,2.7-2.8,4.3c-1.6,3.1-2.8,6.6-3.8,10c-1,3.5-1.7,7-2,10.5
			c-0.1,1.8-0.2,3.5,0.1,5.1c0.1,0.4,0.1,0.8,0.2,1.1l0.2,0.5l0.2,0.5c0.3,0.6,0.6,1,1.1,1.3c0.5,0.2,1.1,0.3,1.9,0.1l0.6-0.2
			l0.6-0.3c0.4-0.2,0.7-0.4,1.1-0.7c1.5-1.1,2.8-2.5,3.9-4C901.9,576.3,903.5,572.7,904.6,569z"/>
	</g>
	
		<ellipse transform="matrix(0.962 -0.2729 0.2729 0.962 -134.5713 159.3377)" class="st18" cx="505.5" cy="563.4" rx="32.4" ry="68.6"/>
	<path class="st9" d="M482.1,579.7c-10.3-36.4-4.7-69.9,12.5-74.8c6.1-1.7,12.9,0.4,19.5,5.4c-9-10.2-18.8-15.2-27.3-12.8
		c-17.2,4.9-22.8,38.4-12.5,74.8c6.7,23.5,18.3,42.5,30.4,51.7C495.6,613.6,487.3,598,482.1,579.7z"/>
	
		<ellipse transform="matrix(0.962 -0.2729 0.2729 0.962 -134.5713 159.3377)" class="st19" cx="505.5" cy="563.4" rx="32.4" ry="68.6"/>
	<g>
		<path d="M489.5,568c1.9,6.5,4.6,12.8,8.5,18.3c1.9,2.7,4.2,5.3,6.7,7.2c1.3,1,2.6,1.8,4,2.2c1.4,0.5,2.7,0.4,3.6,0
			c1.9-0.8,3.1-3.5,3.6-6.4c0.5-2.9,0.6-6.1,0.4-9.2c-0.4-6.3-1.7-12.6-3.4-18.8c-1.8-6.2-4-12.3-7-17.8c-1.5-2.8-3.2-5.4-5.2-7.6
			c-2-2.2-4.3-3.8-6.4-3.5c-1,0.2-2.2,0.8-3.1,1.9c-0.9,1.1-1.7,2.5-2.3,4c-1.2,3-1.7,6.4-1.9,9.7
			C486.7,554.6,487.7,561.4,489.5,568z M489.5,568c-1.8-6.5-3.2-13.2-3.6-20.1c-0.2-3.4-0.2-6.9,0.6-10.4c0.4-1.8,0.9-3.6,1.9-5.3
			c0.9-1.7,2.6-3.4,4.8-4.2c2.2-0.8,4.7-0.5,6.7,0.2c2,0.7,3.7,1.8,5.2,3c3,2.4,5.4,5.2,7.5,8.2c4.2,6,7,12.6,9,19.5
			c1.9,6.9,3,14,2.6,21.3c-0.2,3.6-0.8,7.3-2.1,10.9c-0.7,1.8-1.5,3.6-2.9,5.3c-1.3,1.7-3.2,3.2-5.6,3.7c-2.3,0.5-4.6-0.1-6.3-1.1
			c-1.8-0.9-3.1-2.2-4.4-3.5c-2.5-2.6-4.3-5.6-6-8.6C493.7,580.9,491.3,574.5,489.5,568z"/>
	</g>
	<g>
		<path d="M499.3,569c1.1,3.7,2.7,7.3,4.9,10.4c1.1,1.5,2.4,3,3.9,4c0.4,0.2,0.7,0.5,1.1,0.7l0.6,0.3l0.6,0.2
			c0.7,0.2,1.4,0.2,1.9-0.1c0.4-0.3,0.8-0.7,1.1-1.3l0.2-0.5l0.2-0.5c0.1-0.3,0.2-0.8,0.2-1.1c0.3-1.6,0.2-3.4,0.1-5.1
			c-0.3-3.5-1.1-7.1-2-10.5c-1-3.5-2.2-6.9-3.8-10c-0.8-1.6-1.7-3.1-2.8-4.3c-0.3-0.3-0.5-0.6-0.8-0.8l-0.4-0.4l-0.4-0.3
			c-0.6-0.4-1.1-0.6-1.6-0.5c-0.5,0-1.1,0.4-1.6,0.9l-0.4,0.5l-0.3,0.5c-0.2,0.3-0.4,0.8-0.6,1.2c-0.7,1.7-1,3.6-1.2,5.5
			C497.8,561.4,498.3,565.3,499.3,569z M499.3,569c-1-3.7-1.8-7.5-2.1-11.4c-0.1-2-0.2-4,0.2-6c0.1-0.5,0.2-1,0.4-1.5
			c0.1-0.3,0.2-0.5,0.3-0.8l0.4-0.8c0.6-1,1.5-2,2.9-2.6c1.4-0.5,2.8-0.3,4,0.1l0.9,0.3c0.3,0.1,0.5,0.3,0.8,0.4
			c0.6,0.3,1,0.6,1.5,1c1.8,1.4,3.2,3,4.5,4.7c2.5,3.4,4.1,7.3,5.3,11.2c1.1,4,1.7,8.1,1.4,12.3c-0.1,2.1-0.5,4.2-1.3,6.4
			c-0.2,0.5-0.4,1.1-0.7,1.6c-0.2,0.3-0.3,0.5-0.5,0.8l-0.6,0.8c-0.8,1-2,1.9-3.4,2.2c-1.4,0.3-2.8-0.1-3.8-0.7l-0.7-0.5
			c-0.2-0.2-0.4-0.3-0.6-0.5c-0.4-0.3-0.8-0.7-1.1-1.1c-1.4-1.5-2.4-3.3-3.3-5C501.7,576.4,500.4,572.8,499.3,569z"/>
	</g>
	<path class="st14" d="M902.4,414.4c3.6-214.7-201.1-203.6-201.1-203.6l0,1.5l0-1.5c0,0-204.7-11.1-201.1,203.6
		c0.3,17.7,2.2,35.3,5.3,52.6c10.7,58.5,14.9,105.1,14.6,134.8c-0.3,36.4-6.4,274.6,163.6,275.7l0,0l0,0c0.4,0,0.8,0,1.2,0l16.4-0.3
		l16.4,0.3c0.4,0,0.8,0,1.2,0l0,0l0,0c170-1.1,163.9-239.3,163.6-275.7c-0.3-29.7,4-76.3,14.6-134.8
		C900.2,449.7,902.1,432.1,902.4,414.4z"/>
	<linearGradient id="SVGID_6_" gradientUnits="userSpaceOnUse" x1="697.7146" y1="121.9965" x2="700.6474" y2="358.5776">
		<stop  offset="1.082549e-07" style="stop-color:#D91C5C"/>
		<stop  offset="1" style="stop-color:#D91C5C;stop-opacity:0"/>
	</linearGradient>
	<path class="st20" d="M902.4,414.4c3.6-214.7-201.1-203.6-201.1-203.6l0,1.5l0-1.5c0,0-204.7-11.1-201.1,203.6
		c0.3,17.7,2.2,35.3,5.3,52.6c10.7,58.5,14.9,105.1,14.6,134.8c-0.3,36.4-6.4,274.6,163.6,275.7l0,0l0,0c0.4,0,0.8,0,1.2,0l16.4-0.3
		l16.4,0.3c0.4,0,0.8,0,1.2,0l0,0l0,0c170-1.1,163.9-239.3,163.6-275.7c-0.3-29.7,4-76.3,14.6-134.8
		C900.2,449.7,902.1,432.1,902.4,414.4z"/>
	<path class="st21" d="M669.9,658.7c0,0-19.8-19.7-1.6-20.8c16.2,5.5,23.8,7.9,34.9,7.9c11.1,0,32.6-7.9,32.6-7.9s11.9-0.3,3.7,13.9
		c-4.5,5.8-10.1,9.3-10.1,9.3s-9.4,8.8-28.2,8.8S669.9,658.7,669.9,658.7z"/>
	<path class="st15" d="M778,849.6c-67,15.4-78.6-42.7-80.2-73.1c0.8,0,1.6,0,2.4,0c50.9,0,52.7-35.1,52.7-35.1s-6.2,14.4-21.8,14.4
		s-64.8,0.2-64.8,0.2s-7.8,0.2-19-14.6c0,0,0.3,5.9,4.3,12.9c-40.5-12.6-31.8-48.2-34.7-81.9c-3.1-37-2.2-25.5-31.9-88.8
		c-12-25.5-18.5-53.3-19.1-81.5c-3.6-167.8,34.6-263.8,34.6-263.8l-1.5-6.1c-50.6,24.1-100.7,75-98.8,182.2
		c0.3,17.7,2.2,35.3,5.3,52.6c10.7,58.5,14.9,105.1,14.6,134.8c-0.3,36.4-6.4,274.6,163.6,275.7c0.4,0,0.8,0,1.2,0l16.4-0.3
		l16.4,0.3c0.4,0,0.8,0,1.2,0c23.1-0.1,42.9-4.7,59.9-12.4L778,849.6z"/>
	<linearGradient id="SVGID_7_" gradientUnits="userSpaceOnUse" x1="546.8408" y1="565.3482" x2="534.1794" y2="566.4993">
		<stop  offset="0" style="stop-color:#4CEAF3;stop-opacity:0"/>
		<stop  offset="1" style="stop-color:#4CEAF3"/>
	</linearGradient>
	<path class="st22" d="M778,849.6c-89.8,20.7-80.1-90.6-80.1-90.6c-92.5,2.7-77.4-43.4-81-86.5c-3.1-37-2.2-25.5-31.9-88.8
		c-12-25.5-18.5-53.3-19.1-81.5c-3.6-167.8,34.6-263.8,34.6-263.8l-1.5-6.1c-50.6,24.1-100.7,75-98.8,182.2
		c0.3,17.7,2.2,35.3,5.3,52.6c10.7,58.5,14.9,105.1,14.6,134.8c-0.3,36.4-6.4,274.6,163.6,275.7c0.4,0,0.8,0,1.2,0l16.4-0.3
		l16.4,0.3c0.4,0,0.8,0,1.2,0c23.1-0.1,42.9-4.7,59.9-12.4L778,849.6z"/>
	<g>
		<path class="st9" d="M713,210.8C713,210.8,713,210.8,713,210.8l0,1.5L713,210.8z"/>
		<path class="st9" d="M713,877.2l-5.9,0.1l10.5,0.2c0.4,0,0.8,0,1.2,0c1.5,0,2.9,0,4.3-0.1L713,877.2z"/>
		<path class="st9" d="M707.1,210.7c-3.7,0-5.8,0.1-5.8,0.1l0,0C703.5,210.7,705.5,210.7,707.1,210.7z"/>
		<path class="st9" d="M531.9,601.8c0.3-29.7-4-76.3-14.6-134.8c-3.2-17.3-5-34.9-5.3-52.6c-3.1-183.5,145.9-202,189.3-203.6l0,0
			c0,0-204.7-11.1-201.1,203.6c0.3,17.7,2.2,35.3,5.3,52.6c10.7,58.5,14.9,105.1,14.6,134.8c-0.3,36.4-6.4,274.6,163.6,275.7
			c0.4,0,0.8,0,1.2,0l6.2-0.1C525.5,872.3,531.5,637.8,531.9,601.8z"/>
	</g>
	<polygon class="st23" points="701.5,706.2 685.8,698.8 644.7,719.9 701.3,719.9 	"/>
	<polygon class="st23" points="702.1,706.2 717.8,698.8 758.9,719.9 701.9,719.9 	"/>
	<g>
		<path class="st9" d="M727.5,211.8c58.9,8.4,166.4,45.1,163.8,201.3c-0.3,17.7-2.2,35.3-5.3,52.6c-10.7,58.5-14.9,105.1-14.6,134.8
			c0.3,36.4,6.4,274.6-163.6,275.7c-0.4,0-0.8,0-1.2,0l-16.4-0.3l-16.4,0.3c-0.4,0-0.8,0-1.2,0c-4.6,0-9.1-0.2-13.4-0.6
			c7.7,1.2,15.9,1.9,24.5,1.9c0.4,0,0.8,0,1.2,0l16.4-0.3l16.4,0.3c0.4,0,0.8,0,1.2,0c170-1.1,163.9-239.3,163.6-275.7
			c-0.3-29.7,4-76.3,14.6-134.8c3.2-17.3,5-34.9,5.3-52.6C905.2,247.8,782.6,217.2,727.5,211.8z"/>
		<polygon class="st9" points="690.2,210.8 690.2,210.8 690.2,211 		"/>
	</g>
	<path class="st17" d="M902.4,414.4c3.6-214.7-201.1-203.6-201.1-203.6l0,1.5l0-1.5c0,0-204.7-11.1-201.1,203.6
		c0.3,17.7,2.2,35.3,5.3,52.6c10.7,58.5,14.9,105.1,14.6,134.8c-0.3,36.4-6.4,274.6,163.6,275.7l0,0l0,0c0.4,0,0.8,0,1.2,0l16.4-0.3
		l16.4,0.3c0.4,0,0.8,0,1.2,0l0,0l0,0c170-1.1,163.9-239.3,163.6-275.7c-0.3-29.7,4-76.3,14.6-134.8
		C900.2,449.7,902.1,432.1,902.4,414.4z"/>
	<g>
		<g>
			<g>
				<g>
					<path d="M665.8,617.7c-0.9,1.7-1.8,3.5-2.5,5.4c-0.7,1.9-1.4,3.7-1.8,5.6c-1,3.8-1.3,7.7-0.8,11.5c0.5,3.8,2,7.5,4.2,10.9
						c2.2,3.4,5,6.5,8.1,9.4c0.2,0.2,0.2,0.4,0,0.6c-0.1,0.1-0.3,0.2-0.5,0.1c-3.9-1.9-7.5-4.6-10.5-8c-0.8-0.8-1.4-1.8-2.1-2.7
						c-0.6-1-1.3-1.9-1.8-3c-0.6-1-1-2.1-1.4-3.2l-0.5-1.7c-0.2-0.6-0.3-1.1-0.4-1.7c-1.1-4.6-0.8-9.4,0.5-13.8
						c0.6-2.2,1.5-4.3,2.6-6.3c1.1-2,2.3-3.9,3.9-5.7c0.7-0.8,2-0.9,2.8-0.1c0.7,0.6,0.8,1.6,0.4,2.4L665.8,617.7z"/>
				</g>
				<g>
					<path d="M739.8,614.8c1.7,1.8,2.8,3.6,3.9,5.6c1.1,2,1.9,4.1,2.6,6.3c1.2,4.4,1.5,9.3,0.5,13.8c-0.1,0.6-0.3,1.1-0.4,1.7
						l-0.5,1.7c-0.4,1.1-0.9,2.2-1.4,3.2c-0.5,1-1.1,2-1.8,2.9c-0.7,0.9-1.3,1.8-2.1,2.6c-3,3.3-6.6,6-10.4,7.9
						c-0.1,0-0.2,0-0.2-0.1c0-0.1,0-0.1,0-0.2c3.1-3,5.8-6.2,8-9.6c2.1-3.4,3.5-7.2,4-11c0.4-3.8,0.1-7.7-0.9-11.5
						c-0.5-1.9-1.1-3.8-1.9-5.6c-0.4-0.9-0.8-1.8-1.2-2.7c-0.4-0.9-0.9-1.8-1.3-2.6l-0.1-0.2c-0.5-1-0.1-2.3,0.9-2.8
						C738.1,614,739.2,614.2,739.8,614.8z"/>
				</g>
				<g>
					<path d="M729.3,654c1.1-1.5,2.4-2.8,3.4-4.2c0.1-0.2,0.2-0.3,0.3-0.5c0.1-0.1,0.1-0.3,0.1-0.2c0,0,0,0.1,0,0.1
						c0,0.1,0.1,0.1,0.1,0.2c0.1,0.1,0.2,0.2,0.2,0.2c0,0-0.1,0-0.4,0c-0.9-0.1-1.8-0.2-2.7-0.2c-3.4,0-6.5,1.5-9.2,3.7
						c-1.4,1.1-2.6,2.4-3.7,3.7c-1.3,1.5-2.8,2.8-4.4,3.9c-3.2,2.3-7.2,3.7-11.3,3.7c-4.1,0.1-8.1-1.4-11.3-3.6
						c-1.6-1.1-3.1-2.5-4.4-3.9c-0.6-0.6-1.2-1.3-1.8-1.9l-0.9-0.9l-1-0.8c-2.7-2.2-5.8-3.6-9.2-3.6c-0.9,0-1.7,0.1-2.7,0.2
						c-0.3,0-0.4,0-0.4,0c0,0,0.1,0,0.2-0.2c0.1-0.1,0.1-0.3,0.1-0.3c0-0.1,0,0.1,0.1,0.2c0.1,0.1,0.2,0.3,0.3,0.5
						c0.9,1.3,2.3,2.7,3.4,4.2l0,0c0.1,0.1,0.1,0.3,0,0.3c-0.1,0.1-0.2,0.1-0.2,0c-0.9-0.4-1.7-0.9-2.5-1.4
						c-0.8-0.6-1.5-1.1-2.2-1.9c-0.2-0.2-0.3-0.4-0.5-0.7c-0.2-0.3-0.3-0.6-0.4-1.1c0-0.2,0-0.3,0-0.5c0.1-0.2,0.1-0.4,0.2-0.5
						c0.2-0.3,0.5-0.5,0.7-0.6c0.5-0.2,0.8-0.2,1-0.2c0.9-0.2,1.9-0.3,2.8-0.4c2-0.2,4,0.1,5.9,0.8c1.9,0.7,3.6,1.6,5.2,2.8
						c1.6,1.1,3,2.5,4.3,3.8c1.2,1.3,2.5,2.4,3.9,3.3c2.8,1.9,6.1,3,9.4,2.9c3.3,0,6.6-1.2,9.4-3c1.4-0.9,2.7-2,3.9-3.3
						c1.3-1.4,2.7-2.7,4.3-3.9c1.6-1.1,3.3-2.2,5.2-2.8c1.9-0.7,3.9-1,5.9-0.8c1,0.1,2,0.2,2.8,0.4c0.2,0,0.5,0,1,0.2
						c0.2,0.1,0.5,0.3,0.7,0.6c0.1,0.1,0.2,0.3,0.2,0.5c0,0.2,0,0.3,0,0.5c0,0.6-0.2,0.8-0.4,1.1c-0.2,0.3-0.3,0.5-0.5,0.7
						c-1.4,1.5-2.9,2.5-4.7,3.3c-0.1,0.1-0.2,0-0.3-0.1C729.2,654.1,729.2,654,729.3,654L729.3,654z"/>
				</g>
				<g>
					<path d="M742,648.1c0.1-2.1,0-4.2-0.7-6.1c-0.6-1.9-2-3.4-3.8-3.6c-1.8-0.3-3.8,0.2-5.6,0.9l-5.8,2.3c-3.9,1.5-7.9,3-12,4.1
						c-4.1,1.1-8.5,1.7-12.8,1.7c-4.3,0-8.7-0.5-12.8-1.6c-4.1-1.1-8.1-2.5-12-4l-5.9-2.2c-1.9-0.7-3.8-1.2-5.6-0.9
						c-1.8,0.3-3.2,1.8-3.8,3.7c-0.6,1.9-0.8,4-0.6,6.1c-0.5-2-0.7-4.2-0.2-6.3c0.2-1.1,0.6-2.1,1.4-3.1c0.7-0.9,1.8-1.6,2.9-1.9
						c2.3-0.6,4.6-0.2,6.7,0.4c2,0.6,4,1.3,6,1.9c4,1.2,7.9,2.5,11.9,3.4c4,0.9,8,1.4,12.1,1.3c4.1,0,8.1-0.5,12.1-1.5
						c4-0.9,7.9-2.3,11.9-3.6c2-0.6,4-1.3,6-1.9c2.1-0.6,4.4-1.1,6.7-0.5c1.2,0.3,2.2,1,3,1.9c0.8,0.9,1.2,2,1.4,3.1
						c0.5,2.2,0.3,4.3-0.2,6.4L742,648.1z"/>
				</g>
				<g>
					<path d="M670.5,612c4-3.2,8.9-5.2,13.8-6.6c5-1.4,10.1-2.1,15.3-2.2c5.1-0.2,10.3,0.3,15.3,1.4c5,1.1,10,2.8,14.3,5.6
						c0,0,0,0.1,0,0.1c0,0,0,0-0.1,0c-4.9-1.4-9.8-2.3-14.7-2.9c-4.9-0.5-9.9-0.7-14.8-0.6c-4.9,0.1-9.9,0.5-14.7,1.4
						c-4.9,0.9-9.7,2.1-14.4,4C670.5,612.2,670.5,612.2,670.5,612C670.5,612.1,670.5,612.1,670.5,612z"/>
				</g>
				<g>
					<path d="M720,615.8c0.1,4.3-0.1,8.7-0.5,13c-0.4,4.3-1.1,8.6-2.2,12.9c-1.1,4.2-2.5,8.4-4.8,12.3c-1.2,1.9-2.5,3.8-4.3,5.4
						c-1.7,1.6-4.1,2.8-6.7,2.8c-2.6,0-5-1.2-6.7-2.8c-1.8-1.6-3.1-3.4-4.3-5.4c-2.3-3.9-3.8-8.1-4.9-12.3c-2.2-8.5-3-17.2-2.9-25.9
						c0.1-8.7,1.1-17.3,3.5-25.7c1.2-4.2,2.7-8.3,4.9-12c1.1-1.8,2.4-3.6,4.1-5.1c1.6-1.4,3.7-2.5,5.9-2.5c2.2,0,4.3,1,5.9,2.5
						c1.7,1.4,3,3.2,4.1,5c2.3,3.7,3.8,7.8,5.1,11.9C718.8,598.5,719.8,607.2,720,615.8z M718.5,615.8c0-4.3-0.1-8.6-0.6-12.8
						c-0.4-4.3-1.2-8.5-2.2-12.7c-1.1-4.1-2.5-8.2-4.7-11.9c-1.1-1.8-2.4-3.6-4-5c-1.6-1.4-3.6-2.4-5.7-2.4c-2.1,0-4.1,1.1-5.7,2.5
						c-1.6,1.4-2.8,3.2-3.9,5c-2.1,3.7-3.6,7.8-4.6,11.9c-2.1,8.3-2.8,16.9-2.7,25.5c0.2,8.5,1.3,17.1,3.6,25.3
						c1.2,4.1,2.7,8,4.9,11.6c1.1,1.7,2.3,3.4,3.8,4.6c1.5,1.3,3.2,2.1,4.9,2c1.7,0,3.5-0.8,4.9-2.1c1.5-1.3,2.7-2.9,3.7-4.7
						c2.1-3.5,3.6-7.5,4.8-11.6C717.4,633,718.3,624.4,718.5,615.8z"/>
				</g>
			</g>
		</g>
	</g>
	<polygon class="st13" points="701.5,706.2 685.8,698.8 644.7,719.9 701.3,719.9 	"/>
	<g>
		<path d="M658.2,718.9l27.5-13c0.1,0,0.2,0,0.3,0l0,0l15.6,5.7c0.3,0.1,0.5,0.5,0.4,0.8s-0.5,0.5-0.8,0.4c0,0,0,0,0,0l-15.4-6.1
			l0.3,0L658.2,718.9z"/>
	</g>
	<polygon class="st13" points="702.1,706.2 717.8,698.8 758.9,719.9 701.9,719.9 	"/>
	<g>
		<path d="M745.4,718.9l-27.8-12.2l0.3,0l-15.4,6.1c-0.3,0.1-0.7,0-0.8-0.4c-0.1-0.3,0-0.7,0.4-0.8c0,0,0,0,0,0l15.6-5.7l0,0
			c0.1,0,0.2,0,0.3,0L745.4,718.9z"/>
	</g>
	<g>
		<path d="M755.7,733.3c-0.6,2.8-1,5.5-1.9,8.3c-0.9,2.7-2.4,5.3-4.3,7.6c-1.9,2.3-4.2,4.3-6.8,5.8c-2.6,1.5-5.5,2.6-8.5,3.1
			c-0.8,0.1-1.5,0.3-2.3,0.3c-0.8,0.1-1.6,0.1-2.2,0.1l-4.2,0.1l-8.4,0.2c-5.6,0.1-11.2,0.2-16.7,0.2c-5.6,0-11.2,0-16.7-0.2
			l-8.4-0.2l-4.2-0.1c-0.7,0-1.4,0-2.2-0.1c-0.8,0-1.5-0.1-2.3-0.3c-6.1-0.9-11.7-4-15.5-8.6c-1.9-2.3-3.4-4.8-4.4-7.5
			c-1-2.8-1.4-5.5-2-8.3c0.6,1.3,1.1,2.6,1.7,3.9c0.3,0.7,0.6,1.3,0.8,1.9c0.3,0.6,0.6,1.2,1,1.8c1.4,2.3,3,4.4,5,6.2
			c3.9,3.5,8.9,5.5,13.9,5.9c0.6,0.1,1.3,0.1,1.9,0.1c0.6,0,1.3,0,2,0l4.2-0.1l8.4-0.2c5.6-0.1,11.2-0.1,16.7-0.2
			c5.6,0,11.2,0.1,16.7,0.2l8.4,0.2l4.2,0.1c0.7,0,1.3,0,2,0c0.6,0,1.3-0.1,1.9-0.1c5-0.4,10-2.6,13.8-6.2c2-1.8,3.6-3.9,4.9-6.3
			c0.7-1.2,1.2-2.4,1.7-3.7C754.6,735.9,755.1,734.6,755.7,733.3z"/>
	</g>
	<g>
		<path d="M755.7,723.1c-0.7,2.7-1.3,5.4-2.3,8.1c-1,2.6-2.6,5.1-4.5,7.2c-1.9,2.1-4.2,4-6.7,5.4c-2.5,1.4-5.3,2.3-8.2,2.8
			c-1.4,0.2-2.9,0.3-4.3,0.3l-4.2,0l-8.4,0.1l-16.7,0.1l-16.7-0.1l-8.4-0.1c-2.8-0.1-5.5,0.1-8.5-0.3c-5.8-0.8-11.2-3.6-15.1-7.8
			c-1.9-2.1-3.5-4.5-4.6-7.1c-1.1-2.6-1.7-5.4-2.4-8.1l1.4,3.9c0.2,0.7,0.5,1.3,0.7,1.9c0.2,0.6,0.5,1.3,0.9,1.9
			c1.3,2.4,2.9,4.7,4.9,6.6c3.9,3.8,9.1,6.1,14.4,6.7c0.7,0.1,1.3,0.1,2,0.1c0.7,0,1.4,0,2.1,0l4.2,0l8.4-0.1l16.7-0.1l16.7,0.1
			l8.4,0.1l4.2,0c1.4,0,2.7,0,4-0.2c5.3-0.6,10.4-3.1,14.2-7c1.9-1.9,3.5-4.2,4.7-6.7c0.6-1.2,1.1-2.5,1.6-3.9L755.7,723.1z"/>
	</g>
	<line class="st13" x1="659.3" y1="719.9" x2="638.2" y2="719.9"/>
	<line class="st13" x1="764.5" y1="719.9" x2="746.5" y2="719.9"/>
	<path class="st25" d="M882.4,597.2l-20.2,11.3l-56.4,113.5c0,0,7.1,74.7-71.5,90.8c-16.6,3.3-16.3-8.9-15.7-21.5
		c0.4-9.4,17.2-15.6,17.2-15.6h-33h-1.2h-33c0,0,16.8,6.1,17.2,15.6c0.5,12.6,0.8,24.8-15.7,21.5c-78.7-16.1-71.5-90.8-71.5-90.8
		l-56-113.5l-20.7-11.3c0,0-9.1,113.3,11.9,174.1c21.3,52.3,88.1,113,114.8,135.9c7.1,6.1,16.1,9.4,25.5,9.4h28h0.4h28
		c9.3,0,18.4-3.3,25.5-9.4c26.8-22.9,93.5-83.5,114.8-135.9C891.6,710.5,882.4,597.2,882.4,597.2z"/>
	<linearGradient id="SVGID_8_" gradientUnits="userSpaceOnUse" x1="572.4095" y1="755.5945" x2="496.6449" y2="755.1057">
		<stop  offset="0" style="stop-color:#4CEAF3;stop-opacity:0"/>
		<stop  offset="1" style="stop-color:#4CEAF3"/>
	</linearGradient>
	<path class="st26" d="M882.4,597.2l-20.2,11.3l-56.4,113.5c0,0,7.1,74.7-71.5,90.8c-16.6,3.3-16.3-8.9-15.7-21.5
		c0.4-9.4,17.2-15.6,17.2-15.6h-33h-1.2h-33c0,0,16.8,6.1,17.2,15.6c0.5,12.6,0.8,24.8-15.7,21.5c-78.7-16.1-71.5-90.8-71.5-90.8
		l-56-113.5l-20.7-11.3c0,0-9.1,113.3,11.9,174.1c21.3,52.3,88.1,113,114.8,135.9c7.1,6.1,16.1,9.4,25.5,9.4h28h0.4h28
		c9.3,0,18.4-3.3,25.5-9.4c26.8-22.9,93.5-83.5,114.8-135.9C891.6,710.5,882.4,597.2,882.4,597.2z"/>
	<path class="st27" d="M593.9,848c8.9-51.3,53.6-90.3,107.4-90.3c54.4,0,99.4,39.8,107.7,91.9"/>
	<g>
		<path class="st9" d="M543.8,771.3C524.9,716.6,530,627,531.3,608.1l-6-3.5c0,0-8.8,105.9,12.2,166.7
			c21.3,52.3,88.1,113,114.8,135.9c7.1,6.1,16.1,9.4,25.5,9.4h6.2c-9.3,0-18.4-3.3-25.5-9.4C631.8,884.3,565.1,823.7,543.8,771.3z"
			/>
	</g>
	<polyline points="702,677 691.4,672.5 629.6,702.2 622.7,717.4 685.8,689.6 701.9,695.8 701.9,695.8 702,695.8 702,695.8 
		702,695.8 718.1,689.6 781.3,718.4 774.3,702.2 712.6,672.5 702.1,677 	"/>
	<path class="st28" d="M507.2,331.6c0,0,59.8,1.3,59.8,105.4s0,255.8,0,255.8"/>
	<path class="st28" d="M896.7,331.6c0,0-59.8,1.3-59.8,105.4s0,255.8,0,255.8"/>
	<g>
		<path d="M740.2,615.2c1.8,1.4,3.2,3,4.5,4.7c1.3,1.7,2.4,3.5,3.3,5.5c0.5,0.9,0.9,1.9,1.3,2.9c0.3,1,0.7,2,1,3
			c0.6,2,0.8,4.1,1,6.2c-0.6-2-1.3-3.9-2.2-5.7c-0.9-1.8-1.9-3.6-3-5.2c-1.1-1.6-2.4-3.2-3.7-4.6c-1.3-1.4-2.8-2.9-4.2-4.1l-0.1-0.1
			c-0.7-0.6-0.8-1.6-0.2-2.3C738.5,614.7,739.5,614.6,740.2,615.2z"/>
	</g>
	<g>
		<path d="M664.5,617.8c-1.4,1.2-2.8,2.6-4.2,4.1c-1.3,1.5-2.6,3-3.7,4.6c-1.1,1.6-2.2,3.4-3,5.2c-0.9,1.8-1.5,3.8-2.2,5.7
			c0.1-2.1,0.4-4.2,1-6.2c0.2-1,0.6-2,1-3c0.4-1,0.8-2,1.3-2.9c0.9-1.9,2-3.8,3.3-5.5c1.3-1.7,2.7-3.3,4.5-4.7
			c0.7-0.6,1.7-0.4,2.3,0.3C665.3,616.1,665.2,617.1,664.5,617.8L664.5,617.8z"/>
	</g>
	<path class="st27" d="M542,608.5v-56.4c0-31.4-12.6-61.5-34.9-83.6l-1.6-1.6"/>
	<path class="st27" d="M863.2,608.5v-56.4c0-31.4,12.6-61.5,34.9-83.6l1.6-1.6"/>
	<polygon points="808.9,478.8 743.5,486.4 743.5,509.9 805.5,494 836.9,506.5 836.9,493.3 	"/>
	<polygon points="594.4,478.8 659.9,486.4 659.9,509.9 597.8,494 566.5,506.5 566.5,493.3 	"/>
	<g>
		<g>
			<g>
				<path d="M823.3,539.6c-6.3-2.4-12.5-4.8-18.8-6.6c-6.3-1.8-12.7-3.2-19.2-3.5c-3.2-0.2-6.5-0.1-9.7,0.2
					c-3.2,0.3-6.4,0.9-9.4,1.7c-1.5,0.4-3,0.9-4.5,1.5c-1.5,0.6-2.9,1.2-4.3,1.9c-1.4,0.7-2.8,1.5-4.1,2.4c-0.7,0.4-1.3,0.9-1.9,1.4
					c-0.6,0.5-1.2,1-1.7,1.4l-0.7-3.7l7.8,6.3l-9.8-2.1c-1.1-0.2-1.8-1.3-1.5-2.4c0.1-0.4,0.3-0.7,0.5-1l0.3-0.3
					c0.8-0.8,1.4-1.3,2.1-1.9c0.7-0.6,1.4-1.1,2.2-1.6c1.5-1,3-1.9,4.6-2.7c3.1-1.6,6.4-2.8,9.8-3.7c6.7-1.7,13.8-2.2,20.6-1.5
					c1.7,0.1,3.4,0.4,5.1,0.7c1.7,0.3,3.4,0.6,5,1.1l2.5,0.6l2.4,0.7c1.6,0.4,3.2,1.1,4.8,1.6C811.8,532.6,817.8,535.8,823.3,539.6z
					"/>
			</g>
		</g>
		<g>
			<g>
				<path d="M579.2,539.6c5.5-3.9,11.5-7,17.9-9.3c1.6-0.6,3.2-1.2,4.8-1.6l2.4-0.7l2.5-0.6c1.6-0.4,3.3-0.7,5-1.1
					c1.7-0.2,3.4-0.5,5.1-0.7c6.8-0.7,13.8-0.3,20.6,1.5c3.4,0.9,6.7,2,9.8,3.7c1.6,0.8,3.1,1.7,4.6,2.7c0.7,0.5,1.5,1,2.2,1.6
					c0.7,0.6,1.4,1.1,2.1,1.9l0.3,0.3c0.8,0.8,0.8,2,0,2.8c-0.3,0.3-0.6,0.5-1,0.5l-9.8,2.1l7.8-6.3l-0.7,3.7
					c-0.4-0.4-1.1-1-1.7-1.4c-0.6-0.5-1.2-0.9-1.9-1.4c-1.3-0.9-2.7-1.7-4.1-2.4c-1.4-0.7-2.9-1.4-4.3-1.9c-1.5-0.6-3-1.1-4.5-1.5
					c-3.1-0.9-6.2-1.4-9.4-1.7c-3.2-0.3-6.4-0.4-9.7-0.2c-6.5,0.3-12.9,1.7-19.2,3.5C591.7,534.9,585.5,537.3,579.2,539.6z"/>
			</g>
		</g>
	</g>
	<path class="st28" d="M896,351C860,421.3,786.8,469.4,702.3,469.4c-86.2,0-160.7-50.2-196-122.9"/>
	<path class="st28" d="M836.8,255.5c-1.9,72.6-61.4,130.9-134.5,130.9c-73.8,0-133.7-59.4-134.6-132.9"/>
	<path class="st9" d="M872.1,606.5c1.8,28.8,7.1,114.3-10.2,164.3c-21.3,52.3-85.8,113.5-112.5,136.4c-7.1,6.1-16.1,9.4-25.5,9.4
		h2.4c9.3,0,18.4-3.3,25.5-9.4c26.8-22.9,93.7-83.4,115-135.7c18.2-52.8,12.9-145.2,11.4-168.7L872.1,606.5z"/>
	<g>
		<path d="M725.4,530.1c-0.7,5.4-1.2,10.8-1.4,16.2c-0.2,5.4-0.2,10.8,0,16.1c0.1,2.7,0.3,5.4,0.5,8c0.2,2.7,0.5,5.4,0.8,8
			c0.7,5.3,1.5,10.7,2.7,16c-2.2-5-3.6-10.3-4.7-15.7c-0.5-2.7-0.9-5.4-1.3-8.1c-0.3-2.7-0.5-5.5-0.7-8.2c-0.1-2.7-0.1-5.5,0-8.2
			c0.2-2.7,0.3-5.5,0.6-8.2C722.6,540.7,723.6,535.3,725.4,530.1z"/>
	</g>
	<path class="st13" d="M868.1,867.9c106,41,215.7,85.8,313.2,144.2l35.3,18.8l46.3,386.5"/>
	<rect x="679.5" y="991.8" class="st11" width="42.3" height="133.9"/>
	<rect x="679.5" y="991.8" class="st29" width="42.3" height="133.9"/>
	<circle class="st4" cx="700.7" cy="1037.9" r="8.2"/>
	<circle class="st4" cx="700.7" cy="1087.9" r="8.2"/>
	<circle class="st30" cx="700.7" cy="1037.9" r="8.2"/>
	<circle class="st30" cx="700.7" cy="1087.9" r="8.2"/>
	<path class="st31" d="M737.2,940.4c0,0.1,0,0.2,0,0.2c0,14.8-12,26.7-26.7,26.7"/>
	<path class="st32" d="M1074.5,911.7c-76.8,130-218.4,217.2-380.3,217.2c-160,0-300.1-85.1-377.5-212.5"/>
	<path class="st35" d="M810.6,282.9c17,11.5,37.1,29.6,48.2,55.4"/>
	<path class="st36" d="M882.4,597.2l-20.2,11.3l-56.4,113.5c0,0,7.1,74.7-71.5,90.8c-16.6,3.3-16.3-8.9-15.7-21.5
		c0.4-9.4,17.2-15.6,17.2-15.6h-33h-1.2h-33c0,0,16.8,6.1,17.2,15.6c0.5,12.6,0.8,24.8-15.7,21.5c-78.7-16.1-71.5-90.8-71.5-90.8
		l-56-113.5l-20.7-11.3c0,0-9.1,113.3,11.9,174.1c21.3,52.3,88.1,113,114.8,135.9c7.1,6.1,16.1,9.4,25.5,9.4h28h0.4h28
		c9.3,0,18.4-3.3,25.5-9.4c26.8-22.9,93.5-83.5,114.8-135.9C891.6,710.5,882.4,597.2,882.4,597.2z"/>
	<linearGradient id="SVGID_9_" gradientUnits="userSpaceOnUse" x1="701.6422" y1="651.0771" x2="701.6422" y2="621.5467">
		<stop  offset="1.082549e-07" style="stop-color:#D91C5C"/>
		<stop  offset="1" style="stop-color:#D91C5C;stop-opacity:0"/>
	</linearGradient>
	<path class="st37" d="M658.6,642.4c0,0-8.9-37.4,42.7-37.4s43.4,38,43.4,38s-6.4-12.5-23.4-0.8c-10.8,2.7-13.3,3.5-20.1,4
		c-8.1-0.5-31-7.9-31-7.9s-9-4.8-10.3,6.7C659.8,644.3,658.6,642.4,658.6,642.4z"/>
</g>
<g id="Eyes">
	<circle class="st38" cx="619.5" cy="538.4" r="11.5"/>
	<circle cx="619.5" cy="538.4" r="7.6"/>
	<circle class="st39" cx="626.5" cy="535" r="3.4"/>
	<circle class="st38" cx="785.6" cy="538.4" r="11.5"/>
	<circle cx="785.6" cy="538.4" r="7.6"/>
	<circle class="st39" cx="792.9" cy="535" r="3.4"/>
</g>
</svg>
